<svg width="50" height="50" viewBox="0 0 50 50" fill="none" xmlns="http://www.w3.org/2000/svg">
<path d="M39.2099 4.94673C33.2254 -0.233963 19.9836 -2.80042 10.0604 4.63752C0.750957 10.8958 0.290588 22.3343 0.290588 22.3343C1.87621 28.5925 8.16777 34.594 20.2903 31.6702C18.8583 23.2576 21.6652 1.97182 39.2099 4.94692V4.94673Z" fill="#00ACD2"/>
<path d="M32.9761 25.2929C26.4274 30.743 6.49372 39.0594 0.29061 22.3347C-1.1912 30.1226 2.92081 43.0846 14.3056 47.9837C24.3649 52.9396 34.8479 47.2 34.8479 47.2C39.4594 42.6939 41.5625 34.3591 32.9761 25.2929Z" fill="#C8E9EB"/>
<path d="M21.1479 17.6486C29.1289 20.611 46.1895 33.4501 34.8479 47.1999C42.3143 44.5927 51.0697 34.6172 49.6081 22.2804C48.8584 11.0663 39.2101 4.94706 39.2101 4.94706C33.0131 3.19514 24.6842 5.65847 21.1479 17.6486" fill="#662D91"/>
</svg>
