<svg width="65" height="50" viewBox="0 0 65 50" fill="none" xmlns="http://www.w3.org/2000/svg">
<path d="M18.7203 31.875L12.8421 34.375L18.286 36.6801L24.5984 34.375L18.7203 31.875ZM9.88277 35L9.68581 46.25L18.2859 50V38.3201L9.88277 35V35ZM27.5577 35L19.7857 37.93V48.9451L27.5577 45.8201V35ZM36.8294 0L30.9108 2.50006L36.395 4.80504L42.7075 2.50006L36.8294 0V0ZM28.6232 3.32129V14.5713L35.9608 16.6813L36.1981 6.44623L28.6232 3.32129V3.32129ZM45.0356 3.94624L38.0919 6.87628V17.9313L45.0357 14.8063V3.94624H45.0356ZM9.03439 15.8338L3.15622 18.3338L8.6001 20.6388L14.9125 18.3338L9.03439 15.8338V15.8338ZM0.196962 18.9588L0 30.2088L8.6001 33.9588V22.2788L0.196962 18.9588ZM17.8719 18.9588L10.1 21.8888V32.9038L17.8719 29.7788V18.9588ZM27.9718 15.4188L22.0936 17.9187L27.5375 20.2238L33.8499 17.9187L27.9718 15.4188ZM19.1343 18.5438L18.9373 29.7938L27.5374 33.5438V21.865L19.1343 18.5438V18.5438ZM36.8092 18.5438L29.0373 21.4738V32.4888L36.8092 29.3638V18.5438ZM55.3262 0L49.4481 2.5L54.892 4.80498L61.2043 2.5L55.3262 0ZM46.4887 3.125L46.2918 14.375L54.8919 18.125V6.44623L46.4887 3.125ZM64.1636 3.125L56.3917 6.05498V17.07L64.1636 13.945V3.125Z" fill="#F7A80D"/>
</svg>
