<svg width="54" height="50" viewBox="0 0 54 50" fill="none" xmlns="http://www.w3.org/2000/svg">
<path d="M17.6903 0H33.3917L17.0917 48.2958C16.7486 49.3139 15.7944 49.9986 14.7194 49.9986H2.5C1.11944 49.9986 0 48.8792 0 47.4986C0 47.2264 0.0444449 46.9569 0.130556 46.6986L15.318 1.70417C15.6611 0.686111 16.6153 0 17.6903 0Z" fill="url(#paint0_linear_407_129)"/>
<path d="M40.5069 32.3945H15.6083C14.9722 32.3931 14.4556 32.9098 14.4542 33.5459C14.4542 33.8668 14.5861 34.1723 14.8208 34.3904L30.8208 49.3237C31.2861 49.7584 31.9 50.0001 32.5375 50.0001H46.6361L40.5069 32.3945Z" fill="#0078D4"/>
<path d="M17.6903 1.83919e-05C16.6028 -0.00414827 15.6403 0.700018 15.3125 1.73613L0.150055 46.6597C-0.315222 47.9569 0.359777 49.3875 1.657 49.8528C1.92922 49.95 2.21672 50 2.507 50H15.0431C15.9931 49.8306 16.7792 49.1625 17.1 48.2514L20.1237 39.3403L30.9237 49.4139C31.3764 49.7889 31.9445 49.9958 32.532 50H46.5792L40.4181 32.3945L22.4584 32.3986L33.4487 1.83919e-05H17.6903Z" fill="url(#paint1_linear_407_129)"/>
<path d="M37.7459 1.70139C37.4028 0.684722 36.4501 0 35.3765 0H17.8765C18.9487 0 19.9029 0.684722 20.2445 1.7L35.432 46.6986C35.8737 48.0069 35.1709 49.425 33.8626 49.8667C33.6056 49.9555 33.3362 50 33.064 50H50.564C51.9445 50 53.064 48.8805 53.064 47.4986C53.064 47.2264 53.0195 46.9569 52.932 46.7L37.7459 1.70139Z" fill="url(#paint2_linear_407_129)"/>
<defs>
<linearGradient id="paint0_linear_407_129" x1="23.4134" y1="3.7059" x2="7.10703" y2="51.8786" gradientUnits="userSpaceOnUse">
<stop stop-color="#114A8B"/>
<stop offset="1" stop-color="#0669BC"/>
</linearGradient>
<linearGradient id="paint1_linear_407_129" x1="28.5068" y1="26.1538" x2="24.7351" y2="27.4299" gradientUnits="userSpaceOnUse">
<stop stop-opacity="0.3"/>
<stop offset="0.071" stop-opacity="0.2"/>
<stop offset="0.321" stop-opacity="0.1"/>
<stop offset="0.623" stop-opacity="0.05"/>
<stop offset="1" stop-opacity="0"/>
</linearGradient>
<linearGradient id="paint2_linear_407_129" x1="26.5494" y1="2.25625" x2="44.4487" y2="49.945" gradientUnits="userSpaceOnUse">
<stop stop-color="#3CCBF4"/>
<stop offset="1" stop-color="#2892DF"/>
</linearGradient>
</defs>
</svg>
