<svg width="63" height="50" viewBox="0 0 63 50" fill="none" xmlns="http://www.w3.org/2000/svg">
<path d="M54.5508 17.7209C53.2838 13.1965 50.7397 9.21278 47.3246 6.16748L39.7681 13.724C42.5241 15.9673 44.3829 19.269 44.7214 23.0062V25.4845C44.7641 25.4845 44.8036 25.4714 44.8463 25.4714C48.6624 25.4714 51.7685 28.5775 51.7685 32.3935C51.7685 36.2096 48.6624 39.3174 44.8463 39.3174C44.8036 39.3174 44.7641 39.3059 44.7214 39.3042V39.3174H33.7662H31.2255V49.9997H44.7214V49.9932C44.7641 49.9932 44.8036 49.9997 44.8463 49.9997C54.5541 49.9997 62.4509 42.1014 62.4509 32.3952C62.4509 26.2734 59.3053 20.8763 54.5508 17.7209Z" fill="#1976D2"/>
<path opacity="0.5" d="M23.9285 29.6051L31.6855 21.848C31.679 21.8398 31.6724 21.8332 31.6675 21.8267L23.9153 29.5788C23.9186 29.587 23.9236 29.5952 23.9285 29.6051Z" fill="#FFE082"/>
<path opacity="0.5" d="M23.9285 29.6051L31.6855 21.848C31.679 21.8398 31.6724 21.8332 31.6675 21.8267L23.9153 29.5788C23.9186 29.587 23.9236 29.5952 23.9285 29.6051Z" fill="#90CAF9"/>
<path d="M31.2255 0C17.8593 0 6.98468 10.8747 6.98468 24.2408C6.98468 24.6237 7.02412 24.9968 7.0422 25.3748H17.7246C17.6934 25.0001 17.6671 24.6237 17.6671 24.2408C17.6671 16.7648 23.7494 10.6824 31.2255 10.6824C34.4614 10.6824 37.4344 11.8262 39.7681 13.7244L47.3246 6.16784C43.0385 2.34519 37.4064 0 31.2255 0Z" fill="#FF3D00"/>
<path opacity="0.5" d="M17.6046 39.3176C17.603 39.3176 17.603 39.3176 17.6013 39.3176C16.5972 39.3176 15.6489 39.0924 14.7877 38.7046L7.04712 46.4452C9.99381 48.6655 13.6423 50 17.6013 50C17.603 50 17.603 50 17.6046 50H31.2254V39.3176H17.6046Z" fill="#90CAF9"/>
<path d="M17.6046 39.3176C17.603 39.3176 17.603 39.3176 17.6013 39.3176C16.5972 39.3176 15.6489 39.0924 14.7877 38.7046L7.04712 46.4452C9.99381 48.6655 13.6423 50 17.6013 50C17.603 50 17.603 50 17.6046 50H31.2254V39.3176H17.6046Z" fill="#4CAF50"/>
<path d="M10.6824 32.3989C10.6824 28.5861 13.7885 25.48 17.6013 25.48C20.4001 25.48 22.8241 27.1612 23.9137 29.5787L31.6659 21.8266C28.4431 17.5504 23.3418 14.7976 17.5996 14.7976C7.90496 14.7976 0 22.6861 0 32.3989C0 38.1361 2.77906 43.2292 7.04708 46.4454L14.7877 38.7048C12.3751 37.6234 10.6824 35.2075 10.6824 32.3989Z" fill="#FFC107"/>
</svg>
