<svg width="70" height="50" viewBox="0 0 70 50" fill="none" xmlns="http://www.w3.org/2000/svg">
<path d="M50.4569 2.90497C54.8026 -1.06681 61.5816 -0.952021 65.7844 3.16452C69.8814 7.19921 74.5327 18.3123 56.8354 31.2737C51.7262 35.0174 49.9348 42.489 49.8223 48.9933C49.8135 49.5518 49.3485 50 48.778 50H44.0624C43.5354 50 43.091 49.6155 43.0261 49.1034C42.5598 45.6011 39.5121 42.981 35.9046 42.981C32.2971 42.981 29.2494 45.6011 28.7831 49.1034C28.7182 49.6155 28.2738 50 27.7468 50H22.975C22.4463 50 21.9993 49.6167 21.9307 49.1034C21.4789 45.5916 18.4285 42.9577 14.8132 42.9577C11.1979 42.9577 8.14748 45.5916 7.69569 49.1034C7.63083 49.6155 7.18642 50 6.6594 50H1.75909C1.25824 49.9947 0.829452 49.6471 0.730824 49.1663C-1.96033 35.2061 3.05245 24.2031 11.3107 18.4932L15.6085 25.7682C16.6494 27.5075 18.5542 28.5762 20.6132 28.576C21.5929 28.5799 22.5565 28.3332 23.4088 27.8603L25.4252 26.7592H25.4894C27.8609 25.3337 30.1 23.7073 32.1812 21.8987C32.4065 21.6974 32.5324 21.4108 32.5266 21.1122C32.5249 20.805 32.3799 20.5153 32.133 20.3257L31.9676 20.2105C31.5634 19.9799 31.0449 20.0184 30.6789 20.3257C28.703 22.0475 26.5798 23.5999 24.3326 24.966L22.3163 26.075L22.4047 26.0121L22.2922 26.075C20.573 27.0129 18.4032 26.4285 17.416 24.7615L12.8691 17.0618C12.3707 16.2051 12.2607 15.1834 12.5659 14.2438C12.871 13.3042 13.5635 12.5323 14.4758 12.1148C41.0017 -0.240987 52.6902 23.7784 61.4465 15.2057C63.2616 13.4364 63.8052 10.7688 62.8224 8.45299C61.8396 6.13721 59.5253 4.63215 56.9639 4.64312C55.5988 4.63911 54.2698 5.07279 53.1802 5.87791C52.7619 6.18483 52.1769 6.14464 51.8065 5.78353L50.4328 4.39144C50.2334 4.19158 50.1211 3.92368 50.1195 3.64427C50.1269 3.36369 50.2484 3.09759 50.4569 2.90497ZM48.4146 20.2528C48.0038 19.3587 47.0103 18.8678 46.0317 19.0752C45.0531 19.2826 44.3559 20.1319 44.3596 21.1122L47.7336 22.7717C48.5414 22.2003 48.8253 21.1468 48.4146 20.2528Z" fill="#02303A"/>
</svg>
