<svg width="45" height="50" viewBox="0 0 45 50" fill="none" xmlns="http://www.w3.org/2000/svg">
<path d="M11.4968 36.8786C10.872 37.2535 1.24969 43.3767 1.24969 43.7516C1.24969 44.2515 1.24969 44.2515 1.24969 44.2515L2.9992 48.7502H41.9881C41.9881 48.7502 43.8626 42.7519 43.7376 41.2523C43.7376 40.5025 37.4894 36.3787 37.4894 36.3787C37.4894 36.3787 42.363 31.5051 42.488 20.8831C42.488 19.8834 42.488 18.8837 42.363 17.884C41.4883 5.88736 33.8654 1.63857 25.8677 1.26367C17.745 1.01374 13.2463 4.76268 13.2463 4.76268C13.2463 4.76268 8.12274 6.51218 7.62289 10.636C7.62289 10.636 3.62402 11.3858 5.74842 19.5085C4.12388 20.7581 3.74899 22.5076 3.74899 23.7573C3.74899 25.3818 4.24884 27.2563 5.24856 28.381C7.37296 30.6303 9.12246 30.1305 9.12246 30.1305C9.12246 30.1305 9.87225 34.1293 11.4968 36.8786Z" fill="#FFE0B2"/>
<path d="M38.489 41.1277C38.2391 39.5032 37.4893 38.7534 35.8648 38.7534H35.7398H35.6149C35.115 38.8784 34.3652 39.1283 32.2408 40.6279L30.9912 41.5026C30.7412 41.3777 30.3663 41.2527 29.9915 41.2527C29.3666 41.2527 28.8668 41.5026 28.3669 41.8775L27.1173 41.2527L24.9929 40.128C23.8682 39.6282 22.7435 39.2533 21.8688 39.2533C21.2439 39.2533 20.7441 39.3782 20.2442 39.6282C19.6194 40.128 19.3695 40.8778 19.4944 41.8775C19.4944 42.3774 19.6194 43.0022 19.6194 43.5021C19.8693 46.1263 19.9943 48.0008 22.4936 48.1258C22.6185 48.1258 22.7435 48.1258 22.8685 48.1258C24.2431 48.1258 25.8676 47.6259 27.3672 46.5012L28.4919 45.7514C28.8668 46.0014 29.3666 46.2513 29.8665 46.2513C30.4913 46.2513 30.9912 46.0014 31.3661 45.7514L33.1156 46.1263C33.8654 46.2513 34.4902 46.3763 35.115 46.3763H35.6149C36.2397 46.3763 36.8645 46.3763 37.4893 46.0014C38.2391 45.6265 38.614 44.7517 38.614 43.3771C38.614 42.7523 38.489 42.1275 38.489 41.6276V41.1277Z" fill="#F44336"/>
<path d="M19.6194 43.627C19.6194 43.1271 19.4945 42.6273 19.4945 42.0025C19.3695 41.2527 19.4945 40.7528 19.7444 40.2529C13.4962 40.128 11.4968 36.8789 11.4968 36.8789C11.4968 36.8789 11.1219 38.8783 12.8714 41.1277C15.4956 44.2518 19.4945 44.6267 19.4945 44.6267H19.7444C19.7444 44.3768 19.7444 44.0019 19.6194 43.627Z" fill="white"/>
<path d="M21.119 48.7501L20.2443 47.0006C20.1193 46.6257 19.9943 46.2508 19.8694 45.626L19.7444 44.7513L18.8697 44.6263C17.745 44.3764 14.9958 43.6266 12.9963 41.2522C12.3715 40.5025 11.9966 39.6277 11.7467 38.753L11.2468 37.1284L9.87221 38.0032C7.37292 39.6277 3.24909 42.252 1.87448 43.3766L1.12469 44.0015L2.99916 48.7501H21.119Z" fill="#546E7A"/>
<path d="M7.7478 48.7504H21.119L20.2443 47.0009C20.1193 46.626 19.9943 46.2511 19.8694 45.6263L19.7444 44.7516L18.8696 44.6266C17.745 44.3767 14.9957 43.6269 12.9963 41.2525C12.8713 41.1276 12.7464 40.8777 12.6214 40.7527L6.24823 45.0015L7.7478 48.7504Z" fill="#455A64"/>
<path d="M43.3626 40.6276C42.6129 39.8778 40.3635 38.2533 39.4887 37.6285L38.614 37.0037C38.3641 37.2536 37.8642 37.8784 36.9895 38.5032L37.8642 39.378C38.2391 39.7529 38.489 40.3777 38.614 41.0025V41.3774C38.739 41.8773 38.739 42.5021 38.739 43.1269C38.739 45.2513 37.9892 45.6262 37.6143 45.7512C37.3643 45.8761 36.9895 46.0011 36.6146 46.0011L36.7395 48.5004H41.8631L42.113 47.6256C42.7378 45.6262 43.4876 42.752 43.6126 41.5024V40.8776L43.3626 40.6276Z" fill="#546E7A"/>
<path d="M41.988 48.7505L42.238 47.8757C42.6129 46.876 42.8628 45.5014 43.2377 44.3767L38.614 41.8774C38.614 42.2523 38.739 42.7522 38.739 43.252C38.739 45.3764 37.9892 45.7513 37.6143 45.8763C37.3643 46.0013 36.9895 46.1262 36.6146 46.1262L36.7395 48.6255L41.988 48.7505Z" fill="#455A64"/>
<path d="M5.37349 19.7589C5.37349 19.7589 5.49845 19.6339 5.37349 19.7589L5.49845 19.6339C6.12328 19.1341 6.99803 18.7592 7.74782 18.7592C8.4976 18.7592 8.8725 19.0091 9.24739 19.1341C10.8719 20.0088 11.2468 21.6334 11.3718 22.7581V22.883V23.008C12.1216 22.7581 12.8714 22.5081 13.1213 22.3832C13.1213 22.2582 13.1213 22.0083 12.9963 21.6334C12.8714 21.1335 12.7464 20.5087 12.4965 19.8839C11.9966 18.5093 12.1216 16.7598 12.8714 14.5104L12.9963 14.2605C13.1213 13.7606 13.3712 13.2608 13.3712 12.8859C13.3712 12.511 13.4962 12.1361 13.4962 12.0111C13.4962 11.6362 13.3712 11.3863 13.2463 11.0114L12.9963 10.3866L13.3712 9.76175C14.4959 7.88728 18.6197 1.63905 26.9924 1.63905C27.2423 1.63905 27.4922 1.63905 27.8671 1.63905H27.6172C27.1173 1.38912 26.4925 1.26416 25.8677 1.26416C25.6177 1.26416 25.2428 1.26416 24.9929 1.26416C18.2448 1.26416 14.121 4.13834 13.3712 4.6382L13.2463 4.76317L13.1213 4.88813C12.3715 5.13806 8.4976 6.7626 7.74782 10.1366L7.49789 10.5115L6.99803 10.7615C6.49817 11.0114 6.12328 11.3863 5.87335 11.8861C4.9986 13.3857 4.87363 15.6351 5.49845 18.7592L5.62342 19.384L5.12356 20.0088L4.9986 20.1338C5.12356 20.0088 5.24853 19.8839 5.37349 19.7589Z" fill="#616161"/>
<path d="M27.4922 46.2512H34.9901V48.7505H27.4922V46.2512ZM10.2471 23.0078C10.1221 21.8832 9.74725 20.8834 8.8725 20.3836C8.4976 20.2586 8.24767 20.1337 7.87278 20.1337C7.24796 20.1337 6.49817 20.3836 5.87335 21.2583L4.9986 18.7591C6.12328 18.1342 7.12299 17.7593 8.12271 17.7593C8.74753 17.7593 9.37235 17.8843 9.99718 18.1342C10.497 18.3842 10.9969 18.7591 11.3718 19.1339C11.1219 17.3844 11.4968 15.51 11.9966 14.0104C12.2465 13.3856 12.3715 12.7608 12.4965 12.3859C12.6214 11.6361 12.4965 11.5111 12.2465 11.1362C9.87221 11.3861 7.87278 12.011 7.87278 12.011L7.24796 9.63664C7.37292 9.63664 9.87221 8.88686 12.7464 8.63693L13.6211 8.51196L13.996 9.26175C13.996 9.26175 14.121 9.38671 14.121 9.51168C14.4959 9.88657 14.9958 10.6364 15.1207 11.886C15.1207 12.1359 15.1207 12.6358 14.9958 13.0107C14.8708 13.6355 14.6209 14.1354 14.4959 14.8852C13.996 16.3847 13.6211 18.1342 14.121 19.3839C14.3709 20.1337 14.4959 20.8835 14.6209 21.3833C14.7458 21.8832 14.8708 23.0078 14.3709 23.3827C13.8711 23.7576 10.9969 24.6324 10.9969 24.6324C10.9969 24.6324 10.3721 24.1325 10.2471 23.0078Z" fill="#263238"/>
<path d="M14.3709 10.7611L12.1216 9.76135C12.1216 9.63639 16.7453 -0.485739 28.367 0.264049L28.242 2.76334C18.2448 2.26348 14.3709 10.7611 14.3709 10.7611Z" fill="#263238"/>
<path d="M19.9943 40.2529C13.6212 40.2529 11.4968 36.8789 11.4968 36.8789C11.4968 36.8789 11.1219 38.8783 12.8714 41.1277C15.4956 44.2518 19.4945 44.6267 19.4945 44.6267" fill="white"/>
<path d="M19.3694 45.8761C19.2445 45.8761 14.8707 45.3762 11.9965 41.8772C9.87213 39.128 10.247 36.8786 10.372 36.6287L10.9968 33.3796L12.7463 36.2538C12.8713 36.3788 14.6208 39.003 20.1192 39.003V41.5023C17.495 41.5023 15.4955 41.0025 13.996 40.2527C13.996 40.2527 13.996 40.2527 13.996 40.3777C16.2453 43.0019 19.6194 43.3768 19.7443 43.3768L19.3694 45.8761ZM35.8648 47.5006C35.7398 47.5006 35.6148 47.5006 35.4899 47.5006C33.2405 47.5006 31.1161 46.7508 30.9911 46.7508L31.8659 44.3765C31.8659 44.3765 33.6154 45.0013 35.3649 45.0013H35.4899C36.1147 45.0013 36.7395 45.0013 37.1144 44.8764C37.4893 44.6264 37.4893 43.7517 37.4893 43.2518C37.4893 42.752 37.3643 42.1272 37.3643 41.6273V41.2524C37.2394 40.2527 36.8645 39.8778 35.8648 39.8778C35.115 40.0028 32.7406 41.7523 31.8659 42.3771L31.2411 42.8769L29.7415 40.8775L30.2414 40.5026C32.6157 38.7531 34.4901 37.5035 35.7398 37.5035C37.9891 37.5035 39.3638 38.7531 39.7387 41.0025V41.3774C39.8636 41.8772 39.8636 42.627 39.9886 43.2518C39.9886 45.1263 39.4887 46.5009 38.2391 47.0008C37.3643 47.5006 36.6145 47.5006 35.8648 47.5006Z" fill="#263238"/>
<path d="M22.8685 49.5004C22.7435 49.5004 22.6185 49.5004 22.4936 49.5004C18.8696 49.2505 18.6197 46.3763 18.4947 43.752C18.4947 43.2522 18.3697 42.7523 18.3697 42.2525C18.1198 40.253 18.9946 39.2533 19.6194 38.7534C21.2439 37.6288 23.7432 38.1286 25.6177 39.0034L29.3666 41.0028L28.2419 43.2522L24.493 41.2527C22.9934 40.503 21.4939 40.378 21.119 40.7529C20.869 41.0028 20.869 41.5027 20.869 41.8776C20.994 42.3774 20.994 43.0022 20.994 43.5021C21.2439 46.5012 21.4939 46.8761 22.7435 47.0011C25.3678 47.251 27.992 44.7517 27.992 44.6268L29.7415 46.3763C29.4916 46.6262 26.4924 49.5004 22.8685 49.5004ZM18.7446 14.2604C18.7446 14.2604 18.4947 15.0102 17.9949 15.0102C17.7449 15.0102 17.495 14.5103 17.495 14.0105C17.495 12.5109 18.4947 10.6364 19.4944 9.76168C20.2442 9.13686 21.2439 8.76196 22.3686 8.76196C22.8685 8.76196 23.4933 8.76196 23.9932 9.01189C24.618 9.26182 24.9929 9.76168 24.9929 10.7614C24.9929 10.7614 24.9929 11.2613 23.3683 11.2613C22.3686 11.2613 21.119 11.3862 20.6191 11.8861C20.1193 12.3859 19.3695 12.8858 18.7446 14.2604ZM25.4927 21.2584C24.8679 21.2584 24.1181 21.1334 23.4933 21.0085C22.7435 20.8835 22.3686 20.1337 22.6185 19.5089L22.8685 19.134C22.9934 18.8841 23.2434 18.7591 23.4933 18.7591C23.6183 18.7591 23.7432 18.7591 23.8682 18.7591C24.8679 19.0091 26.3675 19.0091 26.8673 19.0091C26.2425 16.6347 26.3675 14.8852 26.7424 14.8852C27.1173 14.8852 28.117 17.7594 28.6168 18.3842C29.1167 19.0091 28.9917 19.7588 28.4919 20.2587C27.6171 21.0085 26.6174 21.2584 25.4927 21.2584ZM37.9892 21.2584C37.7392 21.2584 37.6143 21.2584 37.3644 21.2584C36.6146 21.1335 36.2397 20.6336 36.2397 19.8838C36.2397 19.8838 36.3646 18.7591 36.9895 18.7591C37.4893 18.7591 38.1141 19.0091 38.3641 19.0091C38.1141 17.5095 37.7392 15.0102 38.1141 15.0102C38.489 15.0102 39.3638 18.0093 41.1133 19.134C41.6132 19.5089 41.6131 20.2587 40.8634 20.7586C39.8636 21.1335 38.9889 21.2584 37.9892 21.2584ZM40.3635 13.1357C40.1136 12.136 38.9889 11.2613 37.7392 10.8864C36.1147 10.5115 34.99 11.2613 34.99 11.2613C34.99 10.1366 35.8648 9.26182 36.2397 9.13686C36.7395 8.88693 36.9895 8.76196 37.4893 8.76196C40.1136 8.76196 41.1133 10.3865 41.988 12.011L40.3635 13.1357Z" fill="#263238"/>
<path d="M32.3658 28.7559C32.2408 28.7559 31.9909 28.7559 31.866 28.7559C30.9912 28.7559 30.2414 28.5059 29.7416 27.8811C28.7418 26.7564 28.6169 25.2569 28.9918 25.0069C29.3667 24.757 29.6166 25.6317 30.8662 26.0066C30.8662 26.0066 31.741 26.1316 31.9909 26.1316C32.2408 26.1316 32.3658 26.1316 32.6157 26.1316C34.2403 26.1316 35.6149 25.7567 36.1148 25.3818C36.2397 25.2569 36.2397 25.0069 36.2397 25.0069C36.2397 25.0069 36.2397 24.632 34.6152 23.1325C32.9906 21.6329 32.4908 19.7584 32.4908 18.1339C32.4908 16.2594 32.7407 15.0098 32.9906 15.0098C33.3655 15.0098 33.7404 19.0086 36.3647 21.258C38.2391 22.8825 38.739 24.0072 38.739 25.1319C38.739 26.2566 38.1142 26.8814 37.7393 27.2563C36.3647 28.5059 34.1153 28.7559 32.3658 28.7559ZM31.741 32.5048C27.8671 32.3798 25.8677 30.0055 25.8677 30.0055C25.8677 30.0055 30.2414 30.3804 33.1156 30.3804V32.5048H31.741ZM34.4902 32.5048V31.3801V30.2554C34.7401 30.1305 36.7396 30.3804 38.9889 29.5057C38.4891 32.1299 34.6152 32.5048 34.4902 32.5048ZM28.8668 36.2537C26.1176 36.2537 24.743 35.5039 23.7433 32.2549C23.7433 32.2549 23.6183 32.0049 23.9932 31.88C24.3681 31.755 24.493 32.0049 24.493 32.0049C24.9929 33.3796 27.1173 33.7544 29.7416 33.7544C29.8665 33.7544 29.9915 33.7544 30.1165 33.7544C31.3661 33.7544 33.8654 33.7544 33.8654 33.7544C33.8654 33.7544 33.3655 36.2537 30.7413 36.2537C30.3664 36.2537 29.1167 36.2537 28.8668 36.2537Z" fill="#263238"/>
<path d="M28.7419 41.2526C24.743 41.2526 21.6189 40.003 18.2448 36.379C16.3704 34.3796 16.3704 31.7553 16.6203 31.5054C16.8702 31.2555 17.2451 33.005 18.7447 34.6295C21.7439 37.8786 25.9926 38.8783 29.6166 38.6284C34.3653 38.2535 36.3647 35.5043 36.7396 35.2543L38.864 36.7539C38.739 36.8789 35.8648 40.6278 29.8665 41.1277C29.3667 41.2526 29.1168 41.2526 28.7419 41.2526ZM9.2474 31.2555L9.12243 30.0058L8.99747 28.7562C8.99747 28.7562 9.2474 28.6312 9.74726 28.2563C10.1222 28.0064 10.497 28.0064 10.8719 28.2563L11.4968 28.7562C11.8717 29.1311 11.8717 29.7559 11.4968 30.1308C10.3721 31.1305 9.37236 31.2555 9.2474 31.2555ZM8.74754 23.7576L10.747 24.5074C10.622 24.0075 9.99719 21.7582 8.24768 21.2583C7.74783 21.1333 6.87307 21.5082 6.74811 22.383C6.74811 22.383 6.74811 22.6329 6.74811 22.7579V22.8828C6.87307 25.0072 8.74754 26.2569 8.74754 26.2569V23.7576Z" fill="#263238"/>
<path d="M29.9915 47.5008C27.8671 47.5008 26.2426 45.8763 26.2426 43.7519C26.2426 41.6275 27.8671 40.0029 29.9915 40.0029C32.1159 40.0029 33.7404 41.6275 33.7404 43.7519C33.7404 45.8763 32.1159 47.5008 29.9915 47.5008ZM29.9915 42.5022C29.3667 42.5022 28.7418 43.0021 28.7418 43.7519C28.7418 44.5017 29.2417 45.0015 29.9915 45.0015C30.7413 45.0015 31.2411 44.5017 31.2411 43.7519C31.2411 43.0021 30.7413 42.5022 29.9915 42.5022Z" fill="#263238"/>
<path d="M41.9881 50H2.99915C2.49929 50 1.99943 49.7501 1.87447 49.2502L0.124964 44.8765C-1.21038e-07 44.5016 0 44.3766 0 44.1267V43.6268C0.124965 42.3772 7.12298 38.0034 9.8722 36.3789C8.99745 34.5044 8.37262 32.505 8.12269 31.2553C7.12298 31.1304 5.87333 30.6305 4.37376 29.1309C2.99915 27.7563 2.49929 25.382 2.49929 23.7575C2.49929 22.6328 2.74922 20.7583 4.24879 19.1338C3.49901 15.7597 3.62397 13.1355 4.74865 11.386C5.24851 10.5112 5.87333 10.1363 6.37319 9.76143C7.37291 5.88752 11.4967 4.13802 12.4965 3.63816C13.4962 2.88838 18.1199 -0.235737 25.8677 0.0141918C36.3647 0.389085 42.8628 6.88724 43.6126 17.7592C43.7376 18.7589 43.7376 19.7586 43.7376 20.7583C43.7376 28.881 40.8634 33.8796 39.3638 35.879C44.9872 39.7529 44.9872 40.3777 44.9872 41.0026C45.1122 42.6271 43.6126 47.5007 43.1128 49.0003C42.9878 49.6251 42.4879 50 41.9881 50ZM3.8739 47.5007H40.9884C41.7381 45.1264 42.363 42.6271 42.4879 41.6274C41.7382 40.8776 39.1139 38.8782 36.7396 37.3786C36.4896 37.1287 36.2397 36.8787 36.2397 36.5038C36.2397 36.1289 36.3647 35.754 36.6146 35.5041C36.6146 35.5041 41.1133 30.8804 41.2383 20.8833C41.2383 20.0085 41.2383 19.0088 41.1133 18.0091C40.2386 5.01277 31.1162 2.76341 25.7427 2.51348C18.2448 2.26355 13.996 5.6376 13.8711 5.76256C13.7461 5.88753 13.6211 5.88752 13.4962 6.01249C13.4962 6.01249 9.12241 7.51206 8.74752 10.8861C8.62255 11.386 8.24766 11.8858 7.7478 12.0108C6.87305 12.2607 5.49844 14.1352 6.87305 19.3837C6.99801 19.8836 6.87305 20.3834 6.49815 20.6333C5.24851 21.6331 5.12355 23.1326 5.12355 23.8824C5.12355 25.382 5.6234 26.8816 6.37319 27.6314C7.87277 29.2559 8.99745 29.006 8.99745 29.006C9.37234 28.881 9.74723 29.006 9.99716 29.1309C10.2471 29.3809 10.497 29.6308 10.497 30.0057C10.497 30.0057 11.1218 33.8796 12.7464 36.3789C12.8713 36.6288 12.9963 37.0037 12.8713 37.3786C12.7464 37.7535 12.6214 38.0034 12.2465 38.1284C11.3718 38.6282 4.37376 43.127 2.62426 44.3766L3.8739 47.5007Z" fill="#263238"/>
</svg>
