<svg width="50" height="50" viewBox="0 0 50 50" fill="none" xmlns="http://www.w3.org/2000/svg">
<path d="M4.54545 0C2.03409 0 0 2.03409 0 4.54545V45.4545C0 47.9659 2.03409 50 4.54545 50H45.4545C47.9659 50 50 47.9659 50 45.4545V4.82067L32.9545 21.8661L21.4533 10.3649L26.274 5.54421L32.9545 12.2248L45.1793 0H4.54545ZM13.6142 24.7292C17.7755 24.7292 20.6548 26.9804 20.7298 30.269H16.5572C16.4594 29.0122 15.265 28.1383 13.6763 28.1383C12.0877 28.1383 11.044 28.8874 11.044 30.0692C11.044 31.042 11.8325 31.6075 13.7029 31.978L15.9934 32.4219C19.5025 33.0991 21.076 34.6907 21.076 37.5089C21.0783 41.2157 18.2465 43.4526 13.592 43.4526C9.09879 43.4526 6.26729 41.3355 6.19229 37.9128H10.5025C10.6138 39.206 11.908 40.0302 13.7784 40.0302C15.4648 40.0302 16.6193 39.2186 16.6193 38.0504C16.6193 37.0663 15.8457 36.5352 13.8139 36.1284L11.4746 35.6623C8.22461 35.0464 6.55185 33.2731 6.55185 30.4776C6.55185 27.0049 9.33008 24.7292 13.6142 24.7292ZM31.8848 29.3013C36.0439 29.3013 38.4677 31.8238 38.4677 36.1284V37.318H29.3901V37.5355C29.4265 39.2923 30.4304 40.3809 32.0668 40.3809C33.3145 40.3809 34.1773 39.9199 34.4682 39.1335H38.3833C37.9106 41.7631 35.4378 43.426 31.9469 43.426C27.6424 43.426 25.1687 40.8774 25.1687 36.4524C25.1687 32.0024 27.7029 29.3013 31.8848 29.3013ZM31.907 32.3464C30.5001 32.3464 29.5214 33.3271 29.4123 34.8544H34.3084C34.2357 33.2794 33.3365 32.3464 31.907 32.3464Z" fill="#43B02A"/>
</svg>
