<svg width="45" height="50" viewBox="0 0 45 50" fill="none" xmlns="http://www.w3.org/2000/svg">
<path d="M5.54497 31.9789C5.54497 33.5038 4.29735 34.7514 2.77248 34.7514C1.24762 34.7514 0 33.5038 0 31.9789V19.5027C0 17.9778 1.24762 16.7302 2.77248 16.7302C4.29735 16.7302 5.54497 17.9778 5.54497 19.5027V31.9789ZM44.3598 31.9789C44.3598 33.5038 43.1121 34.7514 41.5873 34.7514C40.0624 34.7514 38.8148 33.5038 38.8148 31.9789V19.5027C38.8148 17.9778 40.0624 16.7302 41.5873 16.7302C43.1121 16.7302 44.3598 17.9778 44.3598 19.5027V31.9789ZM19.4074 47.2276C19.4074 48.7524 18.1598 50 16.6349 50C15.11 50 13.8624 48.7524 13.8624 47.2276V34.7514C13.8624 33.2265 15.11 31.9789 16.6349 31.9789C18.1598 31.9789 19.4074 33.2265 19.4074 34.7514V47.2276ZM30.4973 47.2276C30.4973 48.7524 29.2497 50 27.7248 50C26.2 50 24.9524 48.7524 24.9524 47.2276V34.7514C24.9524 33.2265 26.2 31.9789 27.7248 31.9789C29.2497 31.9789 30.4973 33.2265 30.4973 34.7514V47.2276Z" fill="#7CB342"/>
<path d="M8.3175 16.7302V37.5239C8.3175 39.0487 9.56512 40.2963 11.09 40.2963H33.2699C34.7947 40.2963 36.0424 39.0487 36.0424 37.5239V16.7302H8.3175ZM22.1799 2.8678C13.8625 2.8678 8.73338 7.85827 8.3175 13.9577H36.0424C35.6265 7.85827 30.4974 2.8678 22.1799 2.8678ZM16.635 10.6308C15.8032 10.6308 15.2487 10.0763 15.2487 9.24451C15.2487 8.41277 15.8032 7.85827 16.635 7.85827C17.4667 7.85827 18.0212 8.41277 18.0212 9.24451C18.0212 9.93763 17.4667 10.6308 16.635 10.6308ZM27.7249 10.6308C26.8932 10.6308 26.3387 10.0763 26.3387 9.24451C26.3387 8.41277 26.8932 7.85827 27.7249 7.85827C28.5566 7.85827 29.1111 8.41277 29.1111 9.24451C29.1111 9.93763 28.5566 10.6308 27.7249 10.6308Z" fill="#7CB342"/>
<path d="M28.1407 6.33339C27.8635 6.33339 27.5863 6.19477 27.309 6.05615C26.6159 5.64027 26.4773 4.80853 26.8931 4.11541L29.2497 0.649801C29.6656 -0.0433199 30.4974 -0.181944 31.1905 0.233928C31.8836 0.649801 32.0222 1.48155 31.6064 2.17467L29.2497 5.64027C29.1111 6.05615 28.6952 6.33339 28.1407 6.33339ZM15.6646 5.7789C15.2487 5.7789 14.6942 5.50165 14.5556 5.08578L12.7535 2.17467C12.3376 1.48155 12.4762 0.649801 13.1693 0.233928C13.8625 -0.181944 14.6942 -0.0433199 15.1101 0.649801L16.9122 3.56091C17.3281 4.25403 17.1894 5.08578 16.4963 5.50165C16.2191 5.64027 15.9418 5.7789 15.6646 5.7789Z" fill="#7CB342"/>
</svg>
