<svg width="41" height="50" viewBox="0 0 41 50" fill="none" xmlns="http://www.w3.org/2000/svg">
<path d="M33.9288 26.5634C33.9989 34.1301 40.5524 36.6481 40.625 36.6801C40.5696 36.8576 39.5779 40.2684 37.1723 43.7915C35.0927 46.8374 32.9345 49.8721 29.5347 49.9349C26.1939 49.9966 25.1197 47.9497 21.3003 47.9497C17.4821 47.9497 16.2885 49.8721 13.1262 49.9967C9.84443 50.1212 7.34532 46.7031 5.24862 43.6683C0.964097 37.4606 -2.31017 26.1269 2.08634 18.4765C4.27043 14.6773 8.17357 12.2715 12.4101 12.2098C15.6327 12.1482 18.6743 14.3825 20.6444 14.3825C22.6133 14.3825 26.3096 11.6955 30.1954 12.0901C31.8222 12.158 36.3886 12.7487 39.3207 17.0498C39.0844 17.1966 33.8721 20.2375 33.9288 26.5634ZM27.6503 7.98325C29.3926 5.86972 30.5652 2.9275 30.2453 0C27.7339 0.101154 24.6971 1.67713 22.8957 3.7895C21.2813 5.66009 19.8675 8.6541 20.249 11.5237C23.0482 11.7407 25.9079 10.0981 27.6503 7.98325Z" fill="#1C1D21"/>
</svg>
