<?xml version="1.0" encoding="utf-8"?>
<!-- Generator: Adobe Illustrator 24.3.0, SVG Export Plug-In . SVG Version: 6.00 Build 0)  -->
<svg version="1.1" id="Layer_1" xmlns="http://www.w3.org/2000/svg" xmlns:xlink="http://www.w3.org/1999/xlink" x="0px" y="0px"
	 viewBox="0 0 42.2 50" style="enable-background:new 0 0 42.2 50;" xml:space="preserve">
<style type="text/css">
	.st0{fill:#1C1D21;}
</style>
<g>
	<path class="st0" d="M31.2,19.8c0.1,5.6,4.9,7.5,5,7.5c0,0.1-0.8,2.7-2.6,5.3c-1.5,2.3-3.2,4.5-5.7,4.6c-2.5,0-3.3-1.5-6.1-1.5
		c-2.8,0-3.7,1.4-6.1,1.5c-2.4,0.1-4.3-2.5-5.9-4.7c-3.2-4.6-5.6-13.1-2.4-18.7c1.6-2.8,4.5-4.6,7.7-4.7c2.4,0,4.7,1.6,6.1,1.6
		c1.5,0,4.2-2,7.1-1.7c1.2,0.1,4.6,0.5,6.8,3.7C35,12.8,31.2,15.1,31.2,19.8z M26.5,5.9c1.3-1.6,2.2-3.8,1.9-5.9
		c-1.9,0.1-4.1,1.2-5.5,2.8c-1.2,1.4-2.3,3.6-2,5.8C23.1,8.7,25.2,7.5,26.5,5.9z"/>
	<g>
		<path d="M5.5,45.1c0,2.1-1.3,3.2-2.8,3.2C1.1,48.2,0,47,0,45.2C0,43.3,1.2,42,2.8,42C4.4,42,5.5,43.3,5.5,45.1z M0.8,45.2
			c0,1.3,0.7,2.4,1.9,2.4c1.2,0,1.9-1.1,1.9-2.5c0-1.2-0.6-2.4-1.9-2.4C1.5,42.7,0.8,43.8,0.8,45.2z"/>
		<path d="M6.4,48.1c0-0.3,0-0.7,0-1.1v-5.2h0.8v2.7h0c0.3-0.5,0.8-0.8,1.5-0.8c1.1,0,1.8,0.9,1.8,2.2c0,1.5-1,2.3-1.9,2.3
			c-0.6,0-1.1-0.2-1.4-0.8h0l0,0.7H6.4z M7.3,46.4c0,0.1,0,0.2,0,0.3c0.2,0.5,0.6,0.9,1.2,0.9c0.8,0,1.3-0.7,1.3-1.7
			c0-0.9-0.4-1.6-1.3-1.6c-0.5,0-1,0.4-1.2,1c0,0.1,0,0.2,0,0.3V46.4z"/>
		<path d="M10.5,49.4c0.4,0,0.7-0.1,0.9-0.3c0.2-0.2,0.3-0.6,0.3-1.6v-3.6h0.8v3.9c0,0.8-0.1,1.4-0.5,1.8C11.6,49.9,11,50,10.6,50
			L10.5,49.4z M12.5,42.6c0,0.3-0.2,0.5-0.5,0.5c-0.3,0-0.5-0.2-0.5-0.5c0-0.3,0.2-0.5,0.5-0.5C12.3,42.1,12.5,42.3,12.5,42.6z"/>
		<path d="M14.2,46.1c0,1.1,0.7,1.5,1.5,1.5c0.6,0,0.9-0.1,1.2-0.2L17,48c-0.3,0.1-0.7,0.3-1.4,0.3c-1.3,0-2.1-0.9-2.1-2.2
			s0.8-2.3,2-2.3c1.4,0,1.8,1.2,1.8,2c0,0.2,0,0.3,0,0.4H14.2z M16.5,45.6c0-0.5-0.2-1.3-1.1-1.3c-0.8,0-1.1,0.7-1.2,1.3H16.5z"/>
		<path d="M21.3,48c-0.2,0.1-0.7,0.2-1.2,0.2c-1.3,0-2.1-0.9-2.1-2.2c0-1.3,0.9-2.3,2.3-2.3c0.5,0,0.9,0.1,1.1,0.2l-0.2,0.6
			c-0.2-0.1-0.5-0.2-0.9-0.2c-1,0-1.5,0.7-1.5,1.6c0,1,0.6,1.6,1.5,1.6c0.4,0,0.7-0.1,1-0.2L21.3,48z"/>
		<path d="M23.3,42.6v1.2h1.1v0.6h-1.1v2.3c0,0.5,0.2,0.8,0.6,0.8c0.2,0,0.4,0,0.5-0.1l0,0.6c-0.2,0.1-0.4,0.1-0.7,0.1
			c-0.4,0-0.7-0.1-0.8-0.3c-0.2-0.2-0.3-0.6-0.3-1.1v-2.4h-0.7v-0.6h0.7v-1L23.3,42.6z"/>
		<path d="M26.1,42.6c0,0.3-0.2,0.5-0.5,0.5c-0.3,0-0.5-0.2-0.5-0.5c0-0.3,0.2-0.5,0.5-0.5C26,42.1,26.1,42.3,26.1,42.6z M25.3,48.1
			v-4.3h0.8v4.3H25.3z"/>
		<path d="M27.7,43.8l0.8,2.4c0.1,0.4,0.3,0.7,0.3,1.1h0c0.1-0.4,0.2-0.7,0.4-1.1l0.8-2.4h0.8l-1.7,4.3h-0.7l-1.6-4.3H27.7z"/>
		<path d="M32,46.1c0,1.1,0.7,1.5,1.5,1.5c0.6,0,0.9-0.1,1.2-0.2l0.1,0.6c-0.3,0.1-0.7,0.3-1.4,0.3c-1.3,0-2.1-0.9-2.1-2.2
			s0.8-2.3,2-2.3c1.4,0,1.8,1.2,1.8,2c0,0.2,0,0.3,0,0.4H32z M34.3,45.6c0-0.5-0.2-1.3-1.1-1.3c-0.8,0-1.1,0.7-1.2,1.3H34.3z"/>
		<path d="M42.2,47.9c-0.3,0.1-0.9,0.3-1.6,0.3c-1.7,0-3-1.1-3-3c0-1.9,1.3-3.2,3.1-3.2c0.7,0,1.2,0.2,1.4,0.3L42,42.9
			c-0.3-0.1-0.7-0.2-1.2-0.2c-1.4,0-2.3,0.9-2.3,2.5c0,1.5,0.8,2.4,2.3,2.4c0.5,0,1-0.1,1.3-0.2L42.2,47.9z"/>
	</g>
</g>
</svg>
