<?xml version="1.0" encoding="utf-8"?>
<!-- Generator: Adobe Illustrator 24.3.0, SVG Export Plug-In . SVG Version: 6.00 Build 0)  -->
<svg version="1.1" id="Layer_1" xmlns="http://www.w3.org/2000/svg" xmlns:xlink="http://www.w3.org/1999/xlink" x="0px" y="0px"
	 viewBox="0 0 50 46.9" style="enable-background:new 0 0 50 46.9;" xml:space="preserve">
<style type="text/css">
	.st0{fill:#3B97CF;}
	.st1{fill:#CFD8DC;}
	.st2{fill:#1F2228;}
</style>
<g>
	<path class="st0" d="M38.5,34.1c-0.4-0.2-1.3-0.4-1.9-0.8c-0.6,2.5-1.3,5.4-1.9,8.6L48,39.7l-4.4-29.5l-0.2,0.2
		c-0.8,0.8-1.9,3.6-4,11.5h0.2l0.6,3.4l-1.7,0.2c-0.2,1-0.4,2.1-0.8,3.4c3.6,1.9,1.7,6.5,1.5,6.5c-0.2,0-0.2,0-0.2-0.2
		S39.2,34.3,38.5,34.1z"/>
	<path class="st1" d="M49.7,6.8c-0.4,1.3-1,2.7-1.5,2.7c-0.6,0-2.1-0.4-2.5-1c-0.2-0.4-0.8-1-1.9-1c-0.6,0-1,0.4-1.9,0.8
		c-1.3,1-2.9,5.7-4.5,11.4l-3.1-0.5c1.4-4.3,2.4-7.8,2.6-9.2c0-0.6,0.2-3.6-1.7-5.9c-1.3-1.3-2.5-1.7-3.8-1.7c-1,0-2.3,0.4-3.1,0.4
		c-0.4,0-1,0.2-1,0.2S27,3.1,27,2.8c0-0.3,0.6-0.7,0.9-0.8c-0.3,0-0.8,0.2-0.9,0.2c-0.2,0-0.2-0.2,0-0.4c0.2,0,0.8-0.2,1-0.4
		c0.8-0.4,1.5-0.6,2.3-0.8c1.9-0.6,4-0.6,5.9-0.4c1.3,0,2.7,0,4,0.4c1.3,0.4,2.5,0.8,3.6,1.9c0.6,0.6,1.5,1.3,2.3,1.3
		c0.8,0,1.3-0.2,1.5-0.4c0.4,0,2.1,0.4,2.3,0.6S50.1,5.6,49.7,6.8z"/>
	<path class="st0" d="M21.2,11c0.6-0.4,1.5-0.4,1.9,0.2l8,9.2c1.7-5,3.1-9.4,3.1-10.9c0.2-0.4,0.2-1.9-0.4-3.4L0,11.4l5.4,35l18-2.9
		c-0.2-1.5,4.6-14,5.4-16.3l-9.2,1.5l1.3-3.8l6.5-1l1.7,2.1c0,0,0.4-1,0.4-1.5l-9-11.1c-0.4-0.6-0.4-1.5,0.2-1.9
		C20.7,11.4,21.2,11,21.2,11z M8.6,26.9l5.7-1l-1.5,3.8L9,30.3L8.6,26.9z M20.7,16.3l0.6,0.2c0.8,0.2,1,1,0.8,1.9l-6.3,16.8l-3.8,5
		l0.4-6.3l6.3-16.8C19.1,16.3,19.9,16,20.7,16.3z"/>
	<path class="st2" d="M37.4,19.7c-2.9,10.7-5.6,25.2-5.8,26.1c-0.4,0.8-1.3,1.5-3.6,0.8s-2.3-1.7-1.9-3.6c0.3-1.3,5.1-14.5,8.1-23.9
		C34.3,19.1,37.4,19.7,37.4,19.7z"/>
</g>
</svg>
