<svg width="77" height="50" viewBox="0 0 77 50" fill="none" xmlns="http://www.w3.org/2000/svg">
<path d="M61.857 33.3333C61.857 36.4908 60.1952 38.0381 57.0987 38.0929V38.0949H19.0333V38.0929C15.9369 38.0381 14.2751 36.4908 14.2751 33.333C14.2751 30.1762 15.9369 28.6283 19.0333 28.5741V28.5711H57.0987V28.5741C60.1952 28.6283 61.857 30.1762 61.857 33.333M57.0987 40.4789V40.4762H19.0333V40.4792C15.9369 40.5333 14.2751 42.0813 14.2751 45.239C14.2751 48.3967 15.9369 49.9432 19.0333 49.9979V50H57.0987V49.997C60.1952 49.9432 61.857 48.3958 61.857 45.2381C61.857 42.0804 60.1952 40.5333 57.0987 40.4792M68.9944 14.2911V14.2884C65.8985 14.3432 64.2361 15.8905 64.2361 19.0482V45.2381C64.2361 48.3958 65.8985 49.9423 68.9944 49.997V49.9923C73.6387 49.8289 76.132 45.1866 76.132 35.7143V23.8095C76.132 17.4949 73.6387 14.4006 68.9947 14.2908M7.13738 14.2881V14.2911C2.49362 14.4003 0 17.4946 0 23.8095V35.7143C0 45.1866 2.49332 49.8283 7.13738 49.992V49.997C10.2338 49.9429 11.8956 48.3955 11.8956 45.2381V19.0476C11.8956 15.8902 10.2338 14.3429 7.13738 14.2881ZM68.9947 11.9048C68.9947 4.01101 64.8392 0.142857 57.099 0.00625V0H19.033V0.00625C11.2934 0.143155 7.13738 4.01101 7.13738 11.9051V11.9089C11.7817 11.9908 14.2751 14.3116 14.2751 19.0479C14.2751 23.7839 16.7684 26.1045 21.4124 26.1866V26.1905H54.7202V26.1869C59.3637 26.1051 61.857 23.7842 61.857 19.0482C61.857 14.3119 64.3503 11.9911 68.9944 11.9092L68.9947 11.9048Z" fill="#E42528"/>
</svg>
