<svg width="45" height="50" viewBox="0 0 45 50" fill="none" xmlns="http://www.w3.org/2000/svg">
<path d="M38.5625 37.9875L38.971 38.1649L39.0625 38.0984V44.804L38.8937 45.0375L30.3163 50H29.6951L29.6922 40.7031L38.5625 37.9875ZM6.25 38.4203L14.6925 40.8968L15.6188 40.8953L15.6173 50H14.9955L6.25 45.6594V38.4203ZM28.125 40.8953V50H17.1875V40.8953H28.125ZM44.3531 34.3672L44.3532 38.9388L40.7228 45.0232V37.4171L40.7527 37.4081L42.2453 35.8531L44.3531 34.3672ZM4.6875 4.6875V12.1037L14.9169 9.10392H28.8331L38.6277 12.1037L38.7745 12.0565L43.5924 15.4617L43.75 15.7654L42.2283 15.9299V17.1461L38.6277 15.2544L28.8331 13.0112H14.9169L4.6875 15.2544V22.6528L14.9169 22.2657H28.8331L38.6277 22.6528L38.6977 22.6184L43.4193 23.0535L43.75 23.126L42.2283 23.1476V25.3109L43.75 25.3325L43.4272 25.4884L38.8507 25.8779L38.6277 25.7766L28.8331 26.1718H14.9169V26.1624L4.6875 25.7812V33.1858L14.9169 35.4281L28.8331 35.4254L38.6565 33.1953L38.7745 32.952L42.0289 31.2181L42.2283 31.2968V32.5272L43.75 32.6931L43.5417 33.0274L38.7871 36.3823L38.6565 36.3257L28.8331 39.3343H14.9169L4.6875 36.3345V43.75L0 37.8181V32.639L0.0637451 32.6863L1.52168 32.5272V31.2717L0 30.4629V25.3068L0.243018 25.3298L1.52168 25.3109V23.1476L0.0396484 23.126L0 23.13V17.9759L1.52168 17.1711V15.9299L0.0396484 15.7701L0 15.7985V10.6186L4.6875 4.6875ZM6.25 27.4031L13.3531 27.6672L13.3544 27.7343L15.6203 27.7328V33.8625L15.0781 33.8641L6.25 31.9281V27.4031ZM28.125 27.7328V33.8609L17.1875 33.8625V27.7328H28.125ZM38.3188 27.3531L38.5762 27.4694L39.0625 27.4266V31.0266L37.5905 31.8124L37.5766 31.8375L29.6922 33.6266L29.6906 27.6984L38.3188 27.3531ZM44.3531 26.775V31.1844L43.7906 31.125L43.7908 30.2337L41.9312 29.4998L40.7219 30.1422V27.2859L43.847 27.0208L44.3531 26.775ZM40.7219 18.1203L43.7908 19.732L43.7906 18.1297L44.3532 18.5617L44.3531 21.6578L43.7538 21.5272L43.5627 21.4976L40.7219 21.2359V18.1203ZM29.6891 14.8078L38.0766 16.7313L39.0625 17.2484V21.0828L38.403 21.0221L38.2938 21.075L29.6906 20.7344L29.6891 14.8078ZM15.6234 14.5719L15.6219 20.7031L14.9169 20.7032L6.25 21.0297V16.5109L15.0797 14.5734L15.6234 14.5719ZM28.125 14.5719V20.7031H17.1875V14.5719H28.125ZM40.7228 4.95682L44.3532 11.0417L44.3531 14.0859L40.7219 11.5188L40.7228 4.95682ZM30.3163 0L38.8937 4.95839L39.0625 5.19305V10.3469L39.0394 10.3304L38.6156 10.4656L29.6891 7.73125L29.6875 0H30.3163ZM15.625 0L15.6234 7.54063L14.6925 7.54142L6.25 10.0156V4.33437L14.9955 0H15.625ZM28.125 0V7.54063H17.1875V0H28.125Z" fill="#2272BA"/>
</svg>
