<svg width="37" height="50" viewBox="0 0 37 50" fill="none" xmlns="http://www.w3.org/2000/svg">
<path d="M0 39.7729L17.3119 7.31277C17.6767 6.62866 18.6631 6.64116 19.0097 7.3355L25.0008 19.3177L0 39.7729Z" fill="#FF8F00"/>
<path d="M0 39.7639L6.30247 0.900236C6.46724 -0.116841 7.83319 -0.337302 8.31048 0.576362L20.4552 23.8543L0 39.7639Z" fill="#FFA000"/>
<path d="M0.00912476 39.7572L0.236404 39.5788L20.1563 23.2817L14.538 12.5132L0.00912476 39.7572Z" fill="#FF6F00"/>
<path d="M0 39.773L30.3032 10.5528C30.9384 9.94025 31.9987 10.3016 32.1283 11.1744L36.3647 39.773L19.3188 49.7085C18.6267 50.0972 17.7824 50.0972 17.0903 49.7085L0 39.773Z" fill="#FFC400"/>
</svg>
