<svg width="50" height="50" viewBox="0 0 50 50" fill="none" xmlns="http://www.w3.org/2000/svg">
<path d="M25 50C38.8071 50 50 38.8071 50 25C50 11.1929 38.8071 0 25 0C11.1929 0 0 11.1929 0 25C0 38.8071 11.1929 50 25 50Z" fill="#13AA52"/>
<path d="M31.6826 21.9453C30.1035 14.9761 26.3716 12.6846 25.9697 11.8091C25.5303 11.1914 25.085 10.0928 25.085 10.0928C25.0776 10.0742 25.0659 10.0415 25.0522 10.0098C25.0068 10.6274 24.9834 10.8657 24.3994 11.4888C23.4951 12.1958 18.8555 16.0889 18.478 24.0068C18.126 31.3916 23.8125 35.792 24.5815 36.353L24.6689 36.415V36.4097C24.6738 36.4468 24.9131 38.1675 25.081 39.9907H25.6836C25.825 38.7019 26.0369 37.4218 26.3183 36.1562L26.3672 36.1245C26.7112 35.8779 27.0392 35.6096 27.3491 35.3213L27.3843 35.2895C29.019 33.7793 31.958 30.2861 31.9292 24.7168C31.9231 23.7878 31.8406 22.8608 31.6826 21.9453ZM25.0171 32.1836C25.0171 32.1836 25.0171 21.8262 25.3589 21.8281C25.6255 21.8281 25.9707 35.188 25.9707 35.188C25.4961 35.1309 25.0171 32.9893 25.0171 32.1836Z" fill="white"/>
</svg>
