<svg width="93" height="50" viewBox="0 0 93 50" fill="none" xmlns="http://www.w3.org/2000/svg">
<path d="M0.00385789 46.2967H3.70743V32.6302L8.85192 44.3138C9.48654 45.7701 10.3546 46.2852 12.0578 46.2852C13.7611 46.2852 14.5944 45.7701 15.229 44.3138L20.3735 32.9292V46.2967H24.0771V32.2965C24.0771 30.952 23.5427 30.3 22.4394 29.9644C19.8025 29.1349 18.0318 29.8506 17.2312 31.6464L11.9556 43.5287L6.84582 31.6464C6.0781 29.8525 4.27647 29.1349 1.63767 29.9644C0.534317 30.3 0 30.9501 0 32.2945V46.2948H0.00385789V46.2967Z" fill="#00796B"/>
<path d="M25.9269 35.1857H29.6305V43.0075C29.6015 43.3933 29.7539 44.4176 31.5401 44.4446C32.4506 44.46 36.9817 44.4446 37.0376 44.4446V35.1857H40.7412C40.7566 35.1857 40.7412 46.6976 40.7412 46.7458C40.7605 49.5852 37.2151 49.9517 35.5851 49.9999H25.9288V48.1482C25.9481 48.1482 35.1627 48.1501 35.1897 48.1482C37.2884 47.9263 37.0395 46.7709 37.0395 46.4198V46.2964H31.2296C28.0082 46.2674 25.9539 44.8477 25.9308 43.2294C25.9269 43.0789 26.0002 35.2551 25.9269 35.1857Z" fill="#00796B"/>
<path d="M42.593 46.2964H51.8654C53.0807 46.2964 54.2612 46.0418 55.1986 45.602C56.7611 44.8845 57.4054 43.9142 57.4054 42.6392V40.0004C57.4054 37.1533 53.8754 37.0375 51.85 37.0375H48.1464C46.6901 37.0375 46.4683 36.1579 46.2946 35.1857V33.3339C46.4683 32.5932 46.7923 31.5979 48.0751 31.4822C49.5661 31.4822 57.4034 31.4822 57.4034 31.4822V29.6304H48.5959C47.1395 29.6304 42.5892 29.804 42.5892 33.3339V35.6236C42.5892 37.2439 44.0127 38.5633 47.1029 38.8874C47.4501 38.9105 47.7973 38.9337 48.1426 38.9337C48.1426 38.9337 51.742 38.8642 51.8461 38.8874C53.9294 38.8874 53.6979 40.5077 53.6979 40.7392V42.5909C53.6979 42.8456 53.6401 44.4427 51.8249 44.4427C51.686 44.4427 42.5872 44.4427 42.5872 44.4427V46.2964H42.593Z" fill="#F57F17"/>
<path d="M77.775 42.5139C77.775 44.7495 79.0384 46.0033 82.389 46.2541C82.7015 46.2753 83.0159 46.2946 83.3303 46.2946H92.5892V44.4428H84.0344C82.1228 44.4428 81.4785 43.6404 81.4785 42.4927V29.6285H77.775V42.5139V42.5139Z" fill="#F57F17"/>
<path d="M59.2263 42.5929V33.3339C59.2263 31.3664 60.1907 30.0084 62.9221 29.6304H64.2184H70.8674H71.8801C74.6115 30.0084 75.8923 31.3645 75.8923 33.3339V42.5581C75.8923 44.1534 75.4776 45.0098 74.1254 45.5654L76.9957 48.1463H72.8292L70.7652 46.2945H68.3405L64.2203 46.3177C63.6242 46.3177 62.9954 46.2347 62.3048 46.0457C60.2332 45.4805 59.2263 44.3926 59.2263 42.5929ZM62.9298 42.5929C63.1189 43.4937 63.8422 44.4447 65.1288 44.4447H68.7244L66.6643 42.5929H70.8597L71.8608 43.5226C71.8608 43.5226 72.2196 43.2294 72.2196 42.5929C72.2196 41.9563 72.1888 33.3339 72.1888 33.3339C71.9997 32.4968 71.151 31.4822 69.8972 31.4822H65.1307C63.686 31.4822 62.9318 32.5392 62.9318 33.523L62.9298 42.5929Z" fill="#F57F17"/>
<path d="M89.1153 27.6783C87.1265 27.6243 85.6085 27.8094 84.3103 28.3553C83.9419 28.5116 83.3535 28.5154 83.2918 28.9784C83.4943 29.1906 83.5252 29.5088 83.6872 29.7692C83.9959 30.2708 84.5205 30.944 84.9873 31.295C85.4985 31.6808 86.0251 32.0936 86.571 32.4273C87.5432 33.0195 88.6292 33.359 89.5666 33.9531C90.1183 34.3023 90.6661 34.7459 91.2063 35.1394C91.4724 35.3362 91.6499 35.639 91.9971 35.7625C91.9971 35.7432 91.9971 35.7258 91.9971 35.7065C91.8158 35.475 91.7676 35.1568 91.6017 34.9137C91.3567 34.6687 91.1117 34.4238 90.8668 34.1788C90.1492 33.2259 89.2349 32.3868 88.2665 31.6924C87.493 31.1369 85.7628 30.3865 85.4387 29.4876C85.4194 29.4683 85.4021 29.451 85.3808 29.4297C85.9287 29.368 86.571 29.1693 87.0764 29.0343C87.927 28.8067 88.6851 28.8665 89.5628 28.6389C89.9582 28.5251 90.3537 28.4132 90.7491 28.2994C90.7491 28.2242 90.7491 28.1489 90.7491 28.0737C90.3054 27.6185 89.9872 27.0166 89.5049 26.6038C88.2376 25.5256 86.8565 24.4492 85.4349 23.5503C84.6459 23.0527 83.6699 22.7286 82.8346 22.3062C82.553 22.1634 82.0592 22.0901 81.874 21.8548C81.4342 21.2954 81.197 20.5836 80.8575 19.9336C80.1476 18.5679 79.4493 17.0749 78.8224 15.6378C78.3923 14.6579 78.1126 13.6896 77.5783 12.81C75.0108 8.58944 72.2467 6.04131 67.9683 3.53754C67.0578 3.00515 65.9602 2.7949 64.801 2.51906C64.1779 2.48241 63.5568 2.44383 62.9337 2.40525C62.5537 2.24515 62.1602 1.78221 61.8014 1.55652C60.3837 0.659561 56.7457 -1.28867 55.6963 1.27296C55.0328 2.88942 56.6878 4.46729 57.28 5.28709C57.6947 5.86192 58.2271 6.50619 58.5242 7.15431C58.719 7.57868 58.7537 8.00497 58.9196 8.45442C59.3305 9.56163 59.9805 10.8232 60.5129 11.8474C60.781 12.3663 61.0781 12.9103 61.4176 13.3732C61.6259 13.6568 61.9828 13.7822 62.0406 14.222C61.6915 14.71 61.6722 15.4681 61.4755 16.0892C60.592 18.8765 60.9257 22.3389 62.2104 24.3991C62.6039 25.0317 63.5336 26.3897 64.8106 25.8689C65.9275 25.4137 65.6786 24.0036 65.9969 22.7595C66.0683 22.4778 66.0239 22.2714 66.1666 22.0824C66.1666 22.1017 66.1666 22.119 66.1666 22.1403C66.5061 22.8173 66.8437 23.4982 67.1851 24.1753C67.9393 25.3886 69.2761 26.6559 70.4065 27.5124C70.9929 27.956 71.4558 28.7237 72.2158 28.9822C72.2158 28.9629 72.2158 28.9456 72.2158 28.9244C72.1965 28.9244 72.1792 28.9244 72.1579 28.9244C72.0113 28.6948 71.7799 28.6003 71.5928 28.4151C71.151 27.9811 70.6572 27.4429 70.2927 26.9453C69.2626 25.5468 68.3521 24.0152 67.5227 22.4219C67.1273 21.66 66.782 20.8228 66.4483 20.0474C66.319 19.7484 66.321 19.297 66.0528 19.1427C65.6863 19.7098 65.1501 20.1689 64.8665 20.8382C64.4152 21.9088 64.3554 23.2166 64.1895 24.5688C64.0892 24.6035 64.1335 24.5804 64.0757 24.6247C63.2887 24.4338 63.0109 23.6256 62.7177 22.9292C61.977 21.17 61.84 18.3383 62.492 16.3149C62.6598 15.7902 63.4218 14.1409 63.1151 13.6568C62.9685 13.1726 62.4824 12.8929 62.2123 12.5245C61.8747 12.0693 61.541 11.4674 61.3076 10.9408C60.7019 9.56935 60.1271 7.97411 59.4886 6.5872C59.1839 5.92365 58.6688 5.2543 58.2445 4.66597C57.7757 4.01399 57.2491 3.53369 56.8865 2.74475C56.7573 2.46505 56.5817 2.01561 56.7727 1.72627C56.8344 1.53144 56.9193 1.45043 57.1122 1.38677C57.4401 1.13215 58.3525 1.46972 58.6958 1.61246C59.6025 1.9886 60.3586 2.34739 61.1263 2.85663C61.4947 3.1016 61.867 3.57419 62.3126 3.70536C62.4824 3.70536 62.6521 3.70536 62.8219 3.70536C63.6185 3.88861 64.5097 3.76323 65.2523 3.98892C66.5679 4.38821 67.7445 5.00933 68.8132 5.68446C72.0731 7.74264 74.7369 10.6708 76.5598 14.166C76.853 14.7293 76.9803 15.2655 77.2368 15.8616C77.7577 17.0652 78.4154 18.3036 78.9324 19.4803C79.4493 20.655 79.9547 21.8394 80.6858 22.8173C81.0716 23.3304 82.5569 23.6063 83.2301 23.8917C83.7027 24.0924 84.4781 24.2988 84.9256 24.5688C85.7821 25.0858 86.6115 25.7011 87.412 26.2643C87.821 26.5479 89.0536 27.1671 89.1153 27.6783Z" fill="#00796B"/>
<path d="M63.8441 6.1398C63.4294 6.13208 63.1362 6.18416 62.8256 6.2536C62.8256 6.27289 62.8256 6.29026 62.8256 6.31147C62.8449 6.31147 62.8623 6.31147 62.8835 6.31147C63.0822 6.71655 63.4294 6.98082 63.6744 7.32996C63.8634 7.72539 64.0505 8.12082 64.2395 8.51625C64.2588 8.49697 64.2762 8.4796 64.2955 8.46031C64.6446 8.21341 64.8066 7.81991 64.8047 7.21615C64.6639 7.06762 64.6427 6.88244 64.5212 6.70691C64.3591 6.46965 64.0466 6.33655 63.8441 6.1398Z" fill="#00796B"/>
</svg>
