<svg width="49" height="50" viewBox="0 0 49 50" fill="none" xmlns="http://www.w3.org/2000/svg">
<path d="M35.1796 0.00142988C40.1287 0.0604883 44.2311 1.99062 47.0429 5.5835C48.1054 6.94089 49.0147 9.94186 47.3132 16.5292C46.2609 20.6031 44.4332 24.9309 42.1853 28.726C42.7809 28.7093 43.5969 28.6229 44.6967 28.396C45.3278 28.2659 45.861 28.2363 46.3266 28.3058C47.3141 28.4534 48.0777 29.0682 48.3692 29.9511C49.2196 32.5253 45.6079 34.4321 44.4808 34.9551C43.0545 35.6177 40.732 36.0204 38.8327 35.9338L38.7448 35.928L38.4035 35.8979L38.3731 36.1566C38.3585 36.2825 38.3433 36.4147 38.3268 36.5531C38.1994 41.4474 37.4952 44.5535 36.0467 46.6158C34.5146 48.7974 32.3966 49.4062 30.5318 49.8059C30.0087 49.918 29.4122 50 28.787 50C27.5406 50 26.1796 49.6743 25.0544 48.6122C23.9678 47.587 23.5407 46.2778 23.2853 45.4958C23.2454 45.3729 23.2076 45.2571 23.1795 45.1811C22.6676 43.7994 22.4948 41.8247 22.3928 39.285C22.3778 38.9094 22.3664 38.5077 22.355 38.0981C22.3482 37.8455 22.34 37.5531 22.3294 37.247C20.6083 38.0016 18.591 38.1363 16.4374 37.5979C15.8398 37.4485 15.2414 37.1963 14.752 36.8877C14.3667 36.6444 14.0764 36.3826 13.8587 36.119C12.1419 37.5489 10.5095 37.3393 9.6111 37.04C8.00816 36.5052 6.58032 35.0162 5.2459 32.4878C4.30495 30.7046 3.39534 28.3837 2.54231 25.5887C1.05807 20.7262 0.115411 15.5989 0.0310957 13.9138C-0.234382 8.60611 1.20106 4.80586 4.29755 2.61861C6.85472 0.812107 10.3508 0.257223 14.6884 0.969343C16.5327 1.27204 18.1298 1.74641 19.1248 2.08291C20.9222 1.01625 23.0257 0.497255 25.4065 0.535235C26.6765 0.555744 27.8869 0.666644 29.0126 0.865278C30.2217 0.490418 32.5394 -0.0308529 35.1796 0.00142988ZM35.0998 1.33091C31.9914 1.29597 29.3651 2.09145 28.856 2.31515C27.7838 2.04854 26.615 1.88484 25.3425 1.86395C23.009 1.82616 20.9919 2.38485 19.3219 3.52367C18.5965 3.25363 16.7218 2.61007 14.4292 2.24071C10.4656 1.60265 7.31598 2.08614 5.06834 3.67843C2.38641 5.57856 1.14827 8.97508 1.38811 13.7734C1.46882 15.3878 2.38869 20.354 3.84027 25.11C5.75103 31.3698 7.82814 34.9135 10.0135 35.6425C10.2693 35.7278 10.5642 35.7874 10.8895 35.7874C11.6867 35.7874 12.6641 35.4281 13.681 34.2056C14.9213 32.7176 16.2044 31.2658 17.5285 29.852C18.3876 30.313 19.3314 30.5705 20.2967 30.5964L20.3033 30.6719C20.1372 30.8701 19.9745 31.0711 19.8153 31.2749C19.1465 32.1239 19.0073 32.3007 16.8544 32.7439C16.242 32.8704 14.6155 33.2056 14.5916 34.3457C14.5657 35.5915 16.5143 36.1146 16.7363 36.1701C17.5099 36.3638 18.2553 36.4593 18.9661 36.4593C20.6947 36.4593 22.216 35.8911 23.4317 34.7918C23.3943 39.2328 23.5795 43.6088 24.1127 44.9421C24.5495 46.0336 25.6163 48.7009 28.9863 48.7009C29.4807 48.7009 30.025 48.6434 30.6237 48.515C34.1409 47.7611 35.6682 46.2066 36.259 42.7795C36.5752 40.9479 37.1177 36.5744 37.3729 34.2284C37.9115 34.3964 38.6048 34.4733 39.3543 34.4731C40.9176 34.4731 42.7214 34.141 43.8526 33.6159C45.1234 33.0257 47.4167 31.5776 47.0008 30.3193C46.7854 29.6681 46.0923 29.4587 44.9408 29.6964C41.5216 30.4021 40.2972 29.9133 39.8952 29.6172C42.5528 25.5686 44.7391 20.6745 45.9186 16.1084C46.4772 13.9455 46.7858 11.9367 46.8111 10.2994C46.839 8.50243 46.5329 7.18187 45.9017 6.37518C43.3566 3.12317 39.6213 1.37876 35.0998 1.33091ZM25.3193 3.26332C30.4732 3.34763 33.7782 5.99254 35.6433 8.19669C37.2506 10.0959 38.1209 12.0091 38.4683 13.041C35.8562 12.7753 34.0797 13.2909 33.1792 14.5784C31.3388 17.2093 33.9019 22.1655 35.427 24.9222L35.7077 25.4271C35.9749 25.9059 36.2054 26.3197 36.278 26.4955C36.7523 27.6451 37.3665 28.4127 37.8148 28.9729C37.9523 29.1446 38.0856 29.3111 38.187 29.4566C37.3959 29.6847 35.9749 30.2116 36.1044 32.8457C36 34.1674 35.2573 40.3554 34.8799 42.5417C34.3818 45.4301 33.319 46.5059 30.3305 47.1466C27.2322 47.8105 26.1351 46.2296 25.4122 44.4223C24.9456 43.2556 24.7162 37.9942 24.8789 32.1839C24.881 32.1066 24.87 32.032 24.8487 31.9617C24.8297 31.823 24.8008 31.6858 24.7621 31.5512C24.5202 30.7057 23.9306 29.9986 23.2232 29.7054C22.9422 29.5889 22.4264 29.3753 21.8066 29.5339C21.9387 28.9892 22.1679 28.3742 22.4165 27.7082L22.5208 27.4281L22.6473 27.1082C22.7373 26.892 22.8374 26.6696 22.9412 26.4387C23.783 24.5686 24.9359 22.0071 23.6847 16.2203C23.216 14.0528 21.6509 12.9943 19.2783 13.2402C17.8559 13.3874 16.5545 13.9613 15.9055 14.2903C15.7659 14.361 15.6383 14.4293 15.519 14.4958C15.7002 12.312 16.3846 8.23068 18.9448 5.64844C20.5568 4.02291 22.7037 3.22002 25.3193 3.26332ZM21.7707 31.1302C22.1418 30.7719 22.3457 30.8565 22.6875 30.9984C22.9953 31.1256 23.2952 31.5115 23.4167 31.9361C23.4743 32.1366 23.5388 32.5172 23.3275 32.8134C21.5432 35.3117 18.9431 35.2796 17.0758 34.8123C16.6911 34.7162 16.3451 34.5493 16.1421 34.4109C16.3117 34.3311 16.6134 34.2225 17.1368 34.1146C19.6695 33.5933 20.0606 33.2253 20.9148 32.1408C21.0714 31.9418 21.2448 31.7216 21.4653 31.4657L21.6404 31.2665L21.7707 31.1302ZM5.87503 4.822C9.55982 2.209 15.618 3.773 18.0523 4.56621L17.9463 4.66819C13.9516 8.70239 14.0464 15.5949 14.0562 16.0163C14.0559 16.1789 14.0695 16.409 14.0881 16.7256C14.1569 17.8849 14.2849 20.0426 13.9431 22.486C13.6256 24.7566 14.3255 26.979 15.8631 28.5834C16.0209 28.7478 16.1868 28.9042 16.3601 29.0521C15.6757 29.7851 14.1882 31.4061 12.6048 33.3108C11.4844 34.6579 10.7108 34.3996 10.4563 34.315C8.79852 33.762 6.87485 30.258 5.17886 24.7015C3.71133 19.8937 2.85375 15.0591 2.78576 13.7034C2.57156 9.41584 3.61087 6.42779 5.87503 4.822ZM38.9751 30.682C39.0345 30.7304 39.0997 30.7785 39.1711 30.8256C40.3128 31.5791 42.349 31.6604 45.2239 31.0669L45.2554 31.0607L45.0971 31.2021C44.6974 31.544 44.0866 31.9643 43.2634 32.3467C42.4544 32.7221 41.1006 33.0037 39.8146 33.0643C38.3942 33.1307 37.6711 32.9051 37.5009 32.7663C37.4212 31.1248 38.0321 30.9534 38.6787 30.7718C38.7803 30.7433 38.8794 30.7154 38.9751 30.682ZM15.4611 16.2089C16.0447 15.6914 18.749 14.2425 20.6776 14.6844C21.5576 14.8859 22.0939 15.4852 22.3168 16.516C23.4706 21.8527 22.4695 24.077 21.6651 25.8645C21.4993 26.2327 21.3426 26.5808 21.209 26.9408L21.1053 27.2192L20.9506 27.6357C20.7489 28.1834 20.5684 28.7016 20.4473 29.1987C19.1298 29.1949 17.8481 28.6321 16.8736 27.6151C15.6343 26.3219 15.0714 24.5232 15.3291 22.6797C15.6899 20.0986 15.5568 17.8506 15.4852 16.6428C15.4752 16.4738 15.4662 16.3257 15.4611 16.2089ZM35.2746 2.73331C39.3258 2.82275 42.5306 4.33833 44.7995 7.2377C46.5397 9.4616 44.6234 19.5807 39.0759 28.3106C39.0202 28.2396 38.9641 28.1689 38.9077 28.0984L38.8374 28.0107L39.0608 27.6164C40.2399 25.3838 39.9768 23.1855 39.7412 21.2241C39.6386 20.3718 39.5418 19.5669 39.5664 18.8107C39.5919 18.0093 39.6979 17.3219 39.8004 16.6572C39.9263 15.8382 40.0545 14.9907 40.0192 13.9916C40.0456 13.8868 40.0562 13.763 40.0423 13.616C39.9521 12.658 38.8583 9.7907 36.6289 7.19555C35.4094 5.77605 33.631 4.18755 31.2027 3.11615C32.2472 2.89966 33.6754 2.6978 35.2746 2.73331ZM34.3258 15.3806C34.7597 14.7607 35.861 14.1234 38.6251 14.4666C38.6135 15.1591 38.5182 15.7879 38.4172 16.4442C38.3084 17.15 38.196 17.8798 38.1677 18.7657C38.1397 19.6278 38.2474 20.5241 38.3515 21.391C38.5619 23.1419 38.7778 24.9444 37.9421 26.723C37.8032 26.477 37.6796 26.2228 37.5718 25.9617C37.4679 25.7099 37.2423 25.3054 36.9299 24.7456C35.7147 22.5663 32.8691 17.463 34.3258 15.3806ZM20.2524 15.3902C19.8311 15.3624 19.4639 15.4322 19.264 15.5836C19.133 15.6829 19.0923 15.7979 19.0813 15.8771C19.0521 16.087 19.1991 16.319 19.2895 16.4387C19.5451 16.7774 19.9184 17.0103 20.288 17.0615C20.3415 17.0691 20.3949 17.0725 20.4478 17.0725C21.0641 17.0725 21.6245 16.5927 21.6738 16.2385C21.7355 15.7949 21.0916 15.4992 20.467 15.4123L20.2524 15.3902ZM37.327 15.4263C37.2784 15.0786 36.6597 14.9795 36.0725 15.0611C35.4861 15.1428 34.9175 15.4075 34.965 15.756C35.003 16.027 35.4924 16.4896 36.0716 16.4896C36.1205 16.4896 36.1699 16.4863 36.2197 16.4793C36.6063 16.4258 36.89 16.1802 37.0248 16.0387C37.2299 15.823 37.3488 15.5826 37.327 15.4263Z" fill="#336791"/>
</svg>
