<svg width="54" height="50" viewBox="0 0 54 50" fill="none" xmlns="http://www.w3.org/2000/svg">
<path d="M53.8455 31.174C53.8455 30.3573 51.684 29.6958 49.0135 29.6958C46.6904 29.6958 44.7571 30.1971 44.2918 30.8637C39.6944 28.6919 35.0957 26.5202 30.4983 24.3471C28.8984 23.5907 27.0715 23.5984 25.4753 24.3651C20.5805 26.7202 15.6857 29.0753 10.7909 31.4304C9.68321 31.2688 8.34605 31.1727 6.90376 31.1727C3.08714 31.174 0 31.8355 0 32.6521V37.088C0 37.1303 0.0423073 37.17 0.0576917 37.2111C-0.129485 37.9226 0.147434 38.7559 0.889732 39.1059C8.12169 42.5225 15.3524 45.9379 22.5843 49.3545C24.4202 50.2224 26.5176 50.2147 28.3484 49.334C36.6072 45.3597 44.8661 41.3867 53.1263 37.4123C53.7468 37.1136 53.9609 36.4047 53.7788 35.8137C53.8083 35.7457 53.8455 35.679 53.8455 35.6085V31.174Z" fill="#B71C1C"/>
<path d="M22.5843 43.7917C15.3524 40.5584 8.12169 37.3251 0.889733 34.0918C-0.292304 33.5636 -0.297432 31.8777 0.880758 31.3406C9.07937 27.6073 17.2767 23.874 25.4753 20.1407C27.0702 19.4138 28.8984 19.4074 30.4983 20.1227C38.038 23.4945 45.5789 26.865 53.1186 30.2367C54.0852 30.6688 54.0903 32.0495 53.1263 32.488C44.8674 36.2495 36.6085 40.011 28.3484 43.7712C26.5176 44.6045 24.4202 44.6122 22.5843 43.7917Z" fill="#E53935"/>
<path d="M53.8455 21.3778C53.8455 20.5612 51.684 19.8996 49.0135 19.8996C46.6904 19.8996 44.7571 20.4009 44.2918 21.0676C39.6944 18.8958 35.0957 16.724 30.4983 14.551C28.8984 13.7946 27.0715 13.8023 25.4753 14.5689C20.5805 16.924 15.6857 19.2791 10.7909 21.6342C9.68321 21.4727 8.34605 21.3765 6.90376 21.3765C3.08714 21.3778 0 22.0406 0 22.8573V27.2931C0 27.3354 0.0423073 27.3752 0.0576917 27.4162C-0.129485 28.1277 0.147434 28.9611 0.889732 29.3111C8.12169 32.7277 15.3524 36.143 22.5843 39.5596C24.4202 40.4276 26.5176 40.4199 28.3484 39.5391C36.6072 35.5648 44.8661 31.5918 53.1263 27.6175C53.7468 27.3188 53.9609 26.6098 53.7788 26.0188C53.8083 25.9508 53.8455 25.8842 53.8455 25.8137V21.3778Z" fill="#B71C1C"/>
<path d="M22.5843 33.9955C15.3524 30.7622 8.12169 27.5289 0.889733 24.2957C-0.292304 23.7675 -0.297432 22.0816 0.880758 21.5444C9.07937 17.8111 17.2767 14.0778 25.4753 10.3445C27.0702 9.61764 28.8984 9.61122 30.4983 10.3266C38.038 13.6984 45.5789 17.0688 53.1186 20.4406C54.0852 20.8726 54.0903 22.2534 53.1263 22.6918C44.8674 26.4533 36.6085 30.2148 28.3484 33.975C26.5176 34.8096 24.4202 34.8173 22.5843 33.9955Z" fill="#E53935"/>
<path d="M53.8455 11.5831C53.8455 10.7665 51.684 10.105 49.0135 10.105C46.6904 10.105 44.7571 10.6062 44.2918 11.2729C39.6944 9.10112 35.0957 6.92935 30.4983 4.7563C28.8984 3.9999 27.0715 4.0076 25.4753 4.77425C20.5805 7.12935 15.6857 9.48445 10.7909 11.8395C9.68321 11.678 8.34605 11.5819 6.90376 11.5819C3.08714 11.5831 0 12.2447 0 13.0613V17.4972C0 17.5395 0.0423073 17.5792 0.0576917 17.6202C-0.129485 18.3318 0.147434 19.1651 0.889732 19.5151C8.12169 22.9317 15.3524 26.3471 22.5843 29.7637C24.4202 30.6316 26.5176 30.6239 28.3484 29.7432C36.6072 25.7689 44.8661 21.7958 53.1263 17.8215C53.7468 17.5228 53.9609 16.8138 53.7788 16.2228C53.8083 16.1549 53.8455 16.0882 53.8455 16.0177V11.5831Z" fill="#B71C1C"/>
<path d="M22.5843 24.2009C15.3523 20.9676 8.12166 17.7343 0.889702 14.501C-0.292334 13.9728 -0.297462 12.2869 0.880728 11.7497C9.07934 8.01645 17.2767 4.28316 25.4753 0.549871C27.0701 -0.177043 28.8983 -0.183453 30.4983 0.531923C38.038 3.90368 45.5789 7.27415 53.1185 10.6459C54.0852 11.0779 54.0903 12.4587 53.1262 12.8972C44.8674 16.6586 36.6085 20.4201 28.3483 24.1803C26.5176 25.0149 24.4202 25.0214 22.5843 24.2009Z" fill="#E53935"/>
<path d="M20.1895 12.488C20.1869 13.8239 16.6485 15.1252 13.6601 15.1623C10.5589 15.2008 6.89993 13.8893 6.88839 12.5329C6.87686 11.1727 10.5319 9.76241 13.6973 9.79575C16.6883 9.82651 20.1934 11.1573 20.1895 12.488Z" fill="white"/>
<path d="M17.9972 17.2701C21.0651 18.5803 24.1318 19.8918 27.1997 21.2021C28.5509 19.2021 29.9022 17.2021 31.2535 15.2021C26.8343 15.8919 22.4164 16.5816 17.9972 17.2701Z" fill="white"/>
<path d="M24.1792 6.12149C22.7677 6.63559 21.3548 7.1484 19.9433 7.6625C21.8754 7.83173 23.8087 8.00096 25.7407 8.1689C26.3561 9.1894 26.9702 10.2099 27.5855 11.2291C27.9637 10.3035 28.3419 9.37786 28.7201 8.45223C30.3688 8.32403 32.0175 8.19583 33.6662 8.06762C32.388 7.53045 31.1099 6.992 29.8317 6.45354C30.1573 5.67406 30.4829 4.89458 30.8086 4.11383C29.565 4.48562 28.3227 4.85741 27.0791 5.2292C25.7074 4.68818 24.3356 4.14844 22.9638 3.60742C23.3689 4.44587 23.7741 5.28432 24.1792 6.12149Z" fill="white"/>
<path d="M31.1112 12.3316C34.0227 11.17 36.9355 10.0072 39.847 8.8457C42.3623 9.91492 44.8777 10.9841 47.393 12.0534C44.57 13.1764 41.7482 14.2995 38.9252 15.4238C36.3214 14.3918 33.7163 13.3623 31.1112 12.3316Z" fill="#B71C1C"/>
<path d="M39.8482 8.92651C39.8418 10.9726 39.8354 13.0175 39.829 15.0636C42.3507 14.0598 44.8725 13.0572 47.3943 12.0534C44.8789 11.0111 42.3636 9.96881 39.8482 8.92651Z" fill="#A01C1C"/>
</svg>
