<svg width="41" height="50" viewBox="0 0 41 50" fill="none" xmlns="http://www.w3.org/2000/svg">
<path d="M12.9803 49.9813C9.77214 48.5646 7.59306 45.5106 7.30766 42.0149C7.49515 38.4172 9.39507 35.1298 12.4116 33.1695C11.9158 34.3777 12.0366 35.7527 12.7241 36.8568C13.5074 37.9505 14.8532 38.4755 16.1719 38.2026C18.051 37.6734 19.1509 35.7235 18.6218 33.8444C18.4343 33.1861 18.0593 32.5903 17.5468 32.1403C15.4219 30.4112 14.3553 27.6968 14.7344 24.9823C15.099 23.5449 15.8948 22.2449 17.0177 21.2637C16.174 23.5136 18.553 25.7343 20.1509 26.826C22.9841 28.5259 25.7131 30.3946 28.3255 32.4216C31.1796 34.6715 32.7358 38.1922 32.492 41.7962C31.8504 45.6293 29.138 48.7959 25.4402 49.9833C32.8358 48.3376 40.4604 42.4628 40.6063 34.1298C40.4604 27.4634 36.4814 21.4804 30.3984 18.7555H30.1275C30.263 19.0825 30.3275 19.4346 30.315 19.7888C30.3359 19.5596 30.3359 19.3304 30.315 19.1013C30.3484 19.3721 30.3484 19.6429 30.315 19.9138C29.8526 21.8095 27.9401 22.9761 26.0402 22.5136C25.2819 22.3262 24.6028 21.8991 24.1153 21.2845C21.6779 18.1597 24.1153 14.6036 24.5236 11.1662C24.7736 6.77055 22.7653 2.56864 19.203 0C20.9863 2.97279 18.6114 6.87471 16.8843 9.09545C15.1552 11.3162 12.6554 12.9703 10.6179 14.9077C8.4222 16.9493 6.40978 19.195 4.6036 21.5949C0.6996 26.3656 -0.833668 32.657 0.437112 38.688C2.17871 44.5002 7.00975 48.8667 12.9678 50H13.0012L12.9803 49.9813Z" fill="#EE4323"/>
</svg>
