<svg width="39" height="50" viewBox="0 0 39 50" fill="none" xmlns="http://www.w3.org/2000/svg">
<path d="M17.9262 0V13.577C17.0128 13.2059 15.0418 13.1606 14.0705 13.1606C6.76377 13.1606 0 16.5981 0 26.3212C0 37.9552 9.16122 39.4818 15.2941 39.4818C17.7156 39.4818 23.1904 39.2426 25.8225 38.4793V0H17.9262ZM31.0868 0V7.89636H38.9831V0H31.0868ZM31.0868 13.1606V36.0631C31.0868 40.0534 28.66 44.2069 23.1904 46.5916L30.7166 50C38.3656 47.3679 38.9831 38.6953 38.9831 36.0631V13.1606H31.0868ZM15.2169 19.8746C16.0592 19.8746 17.0049 20.029 17.9262 20.2396V32.6188C17.0049 32.8293 16.0592 32.9889 15.2169 32.9889C11.7689 32.9889 8.42587 31.9013 8.42587 26.3212C8.42587 20.7411 11.7689 19.8746 15.2169 19.8746Z" fill="#0C4B33"/>
</svg>
