<svg width="49" height="50" viewBox="0 0 49 50" fill="none" xmlns="http://www.w3.org/2000/svg">
<path d="M48.5421 11.3113C48.5601 11.378 48.5694 11.4467 48.5695 11.5157V22.2481C48.5695 22.3859 48.5332 22.5212 48.4641 22.6404C48.3951 22.7596 48.2958 22.8584 48.1763 22.927L39.1684 28.1132V38.3926C39.1684 38.6724 39.0198 38.9306 38.7772 39.0715L19.974 49.8958C19.931 49.9202 19.884 49.9359 19.8371 49.9525C19.8195 49.9584 19.8028 49.9691 19.7843 49.974C19.6528 50.0087 19.5146 50.0087 19.3832 49.974C19.3617 49.9682 19.3421 49.9564 19.3216 49.9486C19.2785 49.933 19.2335 49.9193 19.1925 49.8958L0.39322 39.0715C0.273794 39.0029 0.174563 38.904 0.105528 38.7848C0.0364936 38.6656 9.46265e-05 38.5304 0 38.3926L0 6.19554C0 6.12511 0.0097816 6.05664 0.0273885 5.99012C0.0332574 5.96762 0.0469517 5.94708 0.0547769 5.92459C0.0694493 5.8835 0.0831435 5.84144 0.104663 5.80329C0.119335 5.77786 0.140855 5.75732 0.158462 5.73384C0.180959 5.70254 0.201501 5.67026 0.227911 5.64288C0.250409 5.62038 0.279754 5.60375 0.305186 5.58419C0.333552 5.56071 0.358985 5.53528 0.391264 5.51669L9.79235 0.104537C9.91138 0.0360469 10.0463 0 10.1836 0C10.3209 0 10.4559 0.0360469 10.5749 0.104537L19.975 5.51669C20.0063 5.53626 20.0347 5.56071 20.063 5.58321C20.0885 5.60277 20.1168 5.62038 20.1393 5.6419C20.1667 5.67026 20.1863 5.70254 20.2098 5.73384C20.2264 5.75732 20.2489 5.77786 20.2626 5.80329C20.2851 5.84242 20.2978 5.8835 20.3134 5.92459C20.3213 5.94708 20.335 5.96762 20.3408 5.9911C20.3588 6.05776 20.368 6.12649 20.3682 6.19554V26.3055L28.2013 21.7952V11.5148C28.2013 11.4463 28.2111 11.3768 28.2287 11.3113C28.2356 11.2878 28.2483 11.2673 28.2561 11.2448C28.2717 11.2037 28.2854 11.1617 28.307 11.1235C28.3216 11.0981 28.3431 11.0775 28.3598 11.0541C28.3833 11.0228 28.4028 10.9905 28.4302 10.9631C28.4527 10.9406 28.4811 10.924 28.5065 10.9044C28.5358 10.8809 28.5613 10.8555 28.5926 10.8369L37.9946 5.42475C38.1136 5.35616 38.2486 5.32006 38.3859 5.32006C38.5233 5.32006 38.6582 5.35616 38.7772 5.42475L48.1773 10.8369C48.2105 10.8565 48.236 10.8809 48.2653 10.9034C48.2898 10.923 48.3181 10.9406 48.3406 10.9621C48.368 10.9905 48.3876 11.0228 48.4111 11.0541C48.4287 11.0775 48.4502 11.0981 48.4639 11.1235C48.4864 11.1617 48.4991 11.2037 48.5148 11.2448C48.5236 11.2673 48.5363 11.2878 48.5421 11.3113ZM47.0025 21.7952V12.8705L43.713 14.7642L39.1684 17.3808V26.3055L47.0025 21.7952ZM37.6024 37.9397V29.0091L33.1322 31.5621L20.3672 38.8475V47.8622L37.6024 37.9397ZM1.56701 7.55029V37.9397L18.8002 47.8612V38.8485L9.79724 33.7532L9.79431 33.7513L9.7904 33.7493C9.76007 33.7317 9.73464 33.7063 9.70628 33.6848C9.68182 33.6652 9.65346 33.6495 9.63194 33.628L9.62998 33.6251C9.60455 33.6006 9.58694 33.5703 9.56542 33.5429C9.54586 33.5165 9.52238 33.494 9.50673 33.4666L9.50575 33.4637C9.48815 33.4343 9.47739 33.3991 9.46467 33.3659C9.45195 33.3365 9.43533 33.3091 9.4275 33.2778C9.41772 33.2407 9.41576 33.2006 9.41185 33.1624C9.40794 33.1331 9.40011 33.1037 9.40011 33.0744V12.0606L4.85656 9.44303L1.56701 7.55029ZM10.1846 1.6872L2.35247 6.19554L10.1826 10.7039L18.0138 6.19456L10.1846 1.6872ZM14.2577 29.823L18.8012 27.2074V7.55029L15.5117 9.444L10.9671 12.0606V31.7177L14.2577 29.823ZM38.3859 7.00741L30.5548 11.5157L38.3859 16.0241L46.2161 11.5148L38.3859 7.00741ZM37.6024 17.3808L33.0579 14.7642L29.7683 12.8705V21.7952L34.3119 24.4108L37.6024 26.3055V17.3808ZM19.5828 37.4927L31.0693 30.9351L36.8111 27.6583L28.9858 23.1529L19.976 28.3401L11.7643 33.0675L19.5828 37.4927Z" fill="#FF2D20"/>
</svg>
