<svg width="45" height="50" viewBox="0 0 45 50" fill="none" xmlns="http://www.w3.org/2000/svg">
<path d="M22.1845 50C21.5145 50 20.8504 49.8249 20.2633 49.4864L14.1473 45.8647C13.2334 45.3535 13.6793 45.1726 13.9804 45.0687C15.1989 44.6427 15.4452 44.5458 16.7455 43.807C16.882 43.7288 17.0606 43.7568 17.2006 43.8397L21.8997 46.628C22.0689 46.7202 22.3105 46.7202 22.4669 46.628L40.7881 36.0523C40.9573 35.9554 41.0682 35.7593 41.0682 35.5574V14.4164C41.0682 14.2051 40.9585 14.0172 40.7846 13.9121L22.4716 3.34454C22.3024 3.24416 22.0771 3.24416 21.9079 3.34454L3.59723 13.911C3.41982 14.0113 3.30661 14.2086 3.30661 14.4105V35.5527C3.30661 35.7546 3.41632 35.9472 3.5914 36.0429L8.60908 38.941C11.3333 40.3031 12.9977 38.6983 12.9977 37.0841V16.2185C12.9977 15.9208 13.2311 15.6909 13.5299 15.6909H15.8502C16.1397 15.6909 16.3778 15.9197 16.3778 16.2185V37.0946C16.3778 40.7268 14.3971 42.8137 10.9528 42.8137C9.89297 42.8137 9.05844 42.8137 6.72876 41.6675L1.92234 38.8978C0.734153 38.2092 0 36.9241 0 35.5539V14.4117C0 13.0356 0.734153 11.7517 1.92117 11.0724L20.2621 0.491964C21.4223 -0.163988 22.963 -0.163988 24.115 0.491964L42.4326 11.0771C43.6138 11.7599 44.3526 13.0403 44.3526 14.4164V35.5586C44.3526 36.93 43.6138 38.2092 42.4315 38.8978L24.1138 49.4771C23.5267 49.8168 22.8614 49.9907 22.1833 49.9907" fill="#21A366"/>
<path d="M27.8441 35.4313C19.828 35.4313 18.1472 31.7512 18.1472 28.6652C18.1472 28.3722 18.3842 28.1376 18.6783 28.1376H21.0453C21.3068 28.1376 21.5274 28.3279 21.5682 28.5858C21.9254 30.9972 22.9898 32.2134 27.8371 32.2134C31.6981 32.2134 33.3403 31.3415 33.3403 29.2931C33.3403 28.1143 32.8723 27.2389 26.8742 26.6518C21.8565 26.1569 18.7565 25.0516 18.7565 21.0388C18.7565 17.3424 21.8752 15.1411 27.0983 15.1411C32.9645 15.1411 35.8719 17.1778 36.2384 21.5524C36.2524 21.7041 36.1976 21.85 36.096 21.9609C35.9957 22.066 35.8533 22.1302 35.7062 22.1302H33.3263C33.0789 22.1302 32.863 21.9562 32.8128 21.717C32.2397 19.1807 30.8543 18.3695 27.089 18.3695C22.8743 18.3695 22.3841 19.8367 22.3841 20.9373C22.3841 22.2714 22.9618 22.6612 28.6483 23.414C34.2799 24.161 36.9539 25.2162 36.9539 29.1741C36.9539 33.1635 33.624 35.4523 27.8184 35.4523" fill="#21A366"/>
</svg>
