<svg width="93" height="50" viewBox="0 0 93 50" fill="none" xmlns="http://www.w3.org/2000/svg">
<path d="M46.1538 0C20.2749 0 0 10.9826 0 25C0 39.0174 20.2749 50 46.1538 50C72.0328 50 92.3077 39.0174 92.3077 25C92.3077 10.9826 72.0328 0 46.1538 0ZM41.3612 7.69231H46.4017L44.8017 15.3846H49.3014C52.156 15.3846 54.0715 15.7828 55.1608 16.7819C56.2275 17.7659 56.5505 19.381 56.1223 21.582L54.1241 30.7692H49.0009L50.8413 22.2731C51.0667 21.1088 50.9766 20.2975 50.5859 19.8693C50.1953 19.4411 49.3389 19.2308 48.0544 19.2308H44.0204L41.5865 30.7692H36.5385L41.3612 7.69231ZM19.2308 15.3846H29.4847C34.375 15.3846 37.3347 18.6599 36.1779 23.5502C34.8332 29.2293 31.2275 30.7692 24.6019 30.7692H21.4318L20.4252 36.5385H15.332L19.2308 15.3846ZM59.6154 15.3846H69.8693C74.7596 15.3846 77.7194 18.6599 76.5625 23.5502C75.2179 29.2293 71.6121 30.7692 64.9865 30.7692H61.8164L60.8098 36.5385H55.7166L59.6154 15.3846ZM23.5953 19.2308L22.1454 26.9231H25.4357C28.2828 26.9231 30.927 26.6001 31.3702 22.3558C31.5355 20.7106 30.8519 19.2308 27.5616 19.2308H23.5953ZM63.9799 19.2308L62.5301 26.9231H65.8203C68.6674 26.9231 71.3116 26.6001 71.7548 22.3558C71.9201 20.7106 71.2365 19.2308 67.9462 19.2308H63.9799Z" fill="#779FE5"/>
</svg>
