<svg width="50" height="50" viewBox="0 0 50 50" fill="none" xmlns="http://www.w3.org/2000/svg">
<path d="M25.6374 9.62722e-05C23.5913 0.00667521 22.1729 0.186938 20.4584 0.48299C15.3953 1.36457 14.4729 3.21588 14.4729 6.62771V11.8422H26.315V14.4738H14.0229H8.29926C4.83085 14.4738 1.79533 16.108 0.833486 20.0251C-0.253354 24.5211 -0.302038 27.3369 0.833486 32.0316C1.69533 35.5329 3.59401 38.1579 7.06374 38.1579H11.8427V31.4421C11.8427 27.5395 15.3769 23.6843 19.4269 23.6843H28.9479C32.2676 23.6843 35.5268 21.2343 35.5268 17.9251V6.62771C35.5268 3.41851 33.2124 1.01852 29.9769 0.480358C30.0571 0.472463 27.6663 -0.00779845 25.6374 9.62722e-05ZM19.0795 5.26324C20.1598 5.26324 21.0532 6.15403 21.0532 7.23956C21.0532 8.33561 20.1598 9.2106 19.0795 9.2106C17.9782 9.2106 17.1058 8.33692 17.1058 7.23956C17.1058 6.15798 17.9782 5.26324 19.0795 5.26324Z" fill="#0277BD"/>
<path d="M24.3624 49.9999C26.4084 49.9933 27.8269 49.813 29.5413 49.517C34.6045 48.6354 35.5268 46.7841 35.5268 43.3722V38.1578H23.6848V35.5262H35.9782H41.7018C45.1702 35.5262 48.2058 33.892 49.1676 29.9749C50.2544 25.4789 50.3031 22.6631 49.1676 17.9683C48.3044 14.467 46.4058 11.842 42.936 11.842H38.1571V18.5578C38.1571 22.4604 34.6229 26.3157 30.5729 26.3157H21.0519C17.7321 26.3157 14.4729 28.7657 14.4729 32.0749V43.3722C14.4729 46.5814 16.7874 48.9814 20.0229 49.5196C19.9427 49.5275 22.3334 50.0078 24.3624 49.9999ZM30.9216 44.7367C29.8413 44.7367 28.9479 43.8459 28.9479 42.7604C28.9479 41.6644 29.8413 40.7894 30.9216 40.7894C32.0229 40.7894 32.8953 41.663 32.8953 42.7604C32.8953 43.842 32.0216 44.7367 30.9216 44.7367Z" fill="#FFC107"/>
</svg>
