<?xml version="1.0" encoding="utf-8"?>
<!-- Generator: Adobe Illustrator 24.3.0, SVG Export Plug-In . SVG Version: 6.00 Build 0)  -->
<svg version="1.1" id="Layer_1" xmlns="http://www.w3.org/2000/svg" xmlns:xlink="http://www.w3.org/1999/xlink" x="0px" y="0px"
	 viewBox="0 0 45.6 50" style="enable-background:new 0 0 45.6 50;" xml:space="preserve">
<style type="text/css">
	.st0{fill-rule:evenodd;clip-rule:evenodd;fill:#7CC734;}
	.st1{fill-rule:evenodd;clip-rule:evenodd;fill:#3E7FCA;}
	.st2{fill-rule:evenodd;clip-rule:evenodd;fill:#EB6E2E;}
</style>
<g>
	<g>
		<defs>
			<rect id="SVGID_1_" x="-155.7" y="-233.4" width="309.5" height="400.6"/>
		</defs>
		<clipPath id="SVGID_2_">
			<use xlink:href="#SVGID_1_"  style="overflow:visible;"/>
		</clipPath>
	</g>
</g>
<g transform="matrix(.5058 0 0 -.5058 -72.889 177.036)">
	<path class="st0" d="M202.6,322.3c-4.6,13.1,8.8,27.2,19.7,27.7c6.6-3.4,12.2-12.4,11.9-24.6c-0.9-15-11.5-28-23.1-39.9
		C210.5,300,207.4,309.3,202.6,322.3"/>
	<path class="st1" d="M176.8,251.2c-1.8,14.7,4.1,27.2,10,34.8c2.8,3.6,5,6.9,6.6,9.9c3.1-1.3,11.5-5.7,16.1-12.8
		C208.8,272.7,201.2,253.9,176.8,251.2"/>
	<path class="st2" d="M167.6,306.9c-19.4,5.4-24.2,22.5-23.4,34c18.9,7.6,39.2-0.2,50.9-16.5c8.2-11.4,13.4-26.1,14.4-38.9
		c-5.6,7.4-12.8,11.8-21.8,15.1C181.5,302.9,175.7,304.4,167.6,306.9"/>
</g>
</svg>
