<svg width="50" height="50" viewBox="0 0 50 50" fill="none" xmlns="http://www.w3.org/2000/svg">
<path d="M50 0H0V50H50V0Z" fill="#2149F3"/>
<path d="M33.373 14.1836H16.6865V30.6418H33.373V14.1836Z" fill="white"/>
<path d="M33.373 28.4006H16.6865V30.6414H33.373V28.4006Z" fill="#000311"/>
<path d="M30.3286 13.8868V17.7515C30.3286 18.256 29.934 18.665 29.4472 18.665C28.9605 18.665 28.5659 18.256 28.5659 17.7515V13.8868C28.5659 11.7523 26.8964 10.022 24.8371 10.022C22.7777 10.022 21.1083 11.7523 21.1083 13.8868V17.7515C21.1083 18.256 20.7137 18.665 20.2269 18.665C19.7402 18.665 19.3456 18.256 19.3456 17.7515V13.8868C19.3456 10.7433 21.8042 8.19507 24.8371 8.19507C27.87 8.19507 30.3286 10.7433 30.3286 13.8868Z" fill="#000311"/>
<path d="M13.0577 35.5127C13.4012 35.7165 13.6671 36.0044 13.8553 36.3766C14.0435 36.7487 14.1376 37.177 14.1376 37.6613C14.1376 38.1398 14.045 38.5607 13.8598 38.9239C13.6746 39.2872 13.4132 39.5693 13.0756 39.7701C12.7381 39.9709 12.3453 40.0714 11.8972 40.0714C11.5626 40.0714 11.2654 40.0079 11.0055 39.8809C10.7456 39.7539 10.5261 39.5693 10.3469 39.3271V40.0182H8.9668V33.4438H10.3469V35.9513C10.5201 35.7091 10.7367 35.5245 10.9966 35.3975C11.2565 35.2705 11.5477 35.207 11.8703 35.207C12.3184 35.207 12.7142 35.3089 13.0577 35.5127ZM12.4169 38.5493C12.6379 38.3052 12.7484 37.9891 12.7484 37.6009C12.7484 37.2186 12.6379 36.9054 12.4169 36.6613C12.1958 36.4172 11.9091 36.2952 11.5567 36.2952C11.2042 36.2952 10.916 36.4172 10.692 36.6613C10.468 36.9054 10.356 37.2186 10.356 37.6009C10.356 37.9949 10.468 38.3125 10.692 38.5537C10.916 38.7948 11.2042 38.9154 11.5567 38.9154C11.9091 38.9154 12.1958 38.7933 12.4169 38.5493ZM17.6883 40.0477V39.4882C17.5273 39.6895 17.3187 39.8435 17.0625 39.95C16.8062 40.0566 16.5111 40.1099 16.1774 40.1099C15.6708 40.1099 15.2685 39.9722 14.9705 39.6969C14.6724 39.4216 14.5234 39.0619 14.5234 38.6178C14.5234 38.1678 14.6829 37.817 15.0017 37.5654C15.3206 37.3137 15.7721 37.185 16.3562 37.179H17.6793V37.0902C17.6793 36.8356 17.5944 36.6388 17.4245 36.4996C17.2547 36.3605 17.0058 36.2909 16.678 36.2909C16.231 36.2909 15.7542 36.43 15.2476 36.7083L14.8185 35.7669C15.1999 35.5774 15.5575 35.4383 15.8913 35.3495C16.2251 35.2607 16.5916 35.2163 16.9909 35.2163C17.6346 35.2163 18.1338 35.3672 18.4884 35.6692C18.843 35.9712 19.0233 36.3916 19.0293 36.9304L19.0382 40.0477H17.6883ZM17.3463 38.9405C17.5574 38.8031 17.684 38.6298 17.7262 38.4207V37.9906H16.6316C16.3602 37.9906 16.1596 38.0339 16.0299 38.1205C15.9003 38.2072 15.8354 38.3461 15.8354 38.5372C15.8354 38.7224 15.9033 38.8703 16.039 38.9808C16.1747 39.0913 16.3602 39.1466 16.5954 39.1466C16.8849 39.1466 17.1352 39.0779 17.3463 38.9405ZM24.6335 35.2606V39.5883C24.6335 40.0376 24.5257 40.4293 24.3102 40.7633C24.0946 41.0974 23.7923 41.3545 23.4031 41.5349C23.014 41.7152 22.565 41.8053 22.0561 41.8053C21.6609 41.8053 21.2853 41.7492 20.929 41.6368C20.5728 41.5245 20.248 41.3708 19.9547 41.1757L20.4665 40.2179C20.9216 40.5372 21.4215 40.6968 21.9663 40.6968C22.3614 40.6968 22.6757 40.6007 22.9092 40.4086C23.1427 40.2164 23.2595 39.9578 23.2595 39.6326V39.0917C23.0978 39.3163 22.8943 39.4878 22.6488 39.606C22.4033 39.7243 22.1219 39.7834 21.8046 39.7834C21.3915 39.7834 21.0248 39.6873 20.7045 39.4952C20.3842 39.303 20.1358 39.0325 19.9591 38.6837C19.7825 38.3349 19.6942 37.9329 19.6942 37.4776C19.6942 37.0283 19.7825 36.6337 19.9591 36.2937C20.1358 35.9538 20.3842 35.6892 20.7045 35.5C21.0248 35.3109 21.3915 35.2163 21.8046 35.2163C22.1159 35.2163 22.3943 35.2769 22.6398 35.3981C22.8853 35.5193 23.0918 35.6892 23.2595 35.908V35.2606H24.6335ZM22.9293 38.3824C23.1393 38.1556 23.2443 37.8594 23.2443 37.4941C23.2443 37.1288 23.1393 36.8312 22.9293 36.6014C22.7194 36.3715 22.4464 36.2566 22.1105 36.2566C21.7745 36.2566 21.5015 36.3715 21.2916 36.6014C21.0816 36.8312 20.9736 37.1288 20.9676 37.4941C20.9736 37.8594 21.0801 38.1556 21.2871 38.3824C21.494 38.6093 21.7685 38.7227 22.1105 38.7227C22.4464 38.7227 22.7194 38.6093 22.9293 38.3824ZM25.7525 35.2548H27.1417V40.0328H25.7525V35.2548ZM26.9685 33.3506C27.1097 33.4939 27.1803 33.6791 27.1803 33.9062C27.1803 34.1332 27.1097 34.3184 26.9685 34.4617C26.8273 34.6051 26.6456 34.6768 26.4233 34.6768C26.207 34.6768 26.0283 34.6036 25.8871 34.4573C25.7459 34.3109 25.6753 34.1272 25.6753 33.9062C25.6753 33.6791 25.7459 33.4939 25.8871 33.3506C26.0283 33.2072 26.207 33.1355 26.4233 33.1355C26.6456 33.1355 26.8273 33.2072 26.9685 33.3506ZM30.5586 36.3012C30.3016 36.2213 30.0715 36.1813 29.8684 36.1813C29.701 36.1813 29.5666 36.2109 29.465 36.2701C29.3634 36.3293 29.3126 36.4182 29.3126 36.5366C29.3126 36.6668 29.3813 36.7675 29.5188 36.8385C29.6562 36.9096 29.8803 36.9895 30.1911 37.0783C30.5317 37.179 30.8126 37.2782 31.0337 37.3759C31.2548 37.4736 31.446 37.6186 31.6074 37.8111C31.7687 38.0035 31.8494 38.2566 31.8494 38.5704C31.8494 39.0441 31.6656 39.4127 31.2981 39.6761C30.9306 39.9396 30.46 40.0714 29.8863 40.0714C29.4919 40.0714 29.1124 40.0136 28.7479 39.8982C28.3833 39.7827 28.0666 39.6184 27.7977 39.4053L28.2459 38.4816C28.4909 38.6711 28.7643 38.8176 29.0661 38.9212C29.3679 39.0248 29.6532 39.0767 29.9221 39.0767C30.1074 39.0767 30.2553 39.0456 30.3659 38.9834C30.4764 38.9212 30.5317 38.828 30.5317 38.7036C30.5317 38.5675 30.4615 38.4609 30.321 38.3839C30.1806 38.3069 29.955 38.224 29.6443 38.1352C29.3156 38.0405 29.0422 37.9458 28.824 37.851C28.6059 37.7563 28.4192 37.6127 28.2638 37.4203C28.1084 37.2278 28.0307 36.9777 28.0307 36.6698C28.0307 36.1961 28.21 35.829 28.5686 35.5685C28.9271 35.308 29.3813 35.1777 29.9311 35.1777C30.2598 35.1777 30.5885 35.2236 30.9171 35.3154C31.2458 35.4072 31.5446 35.5389 31.8135 35.7106L31.3384 36.6432C31.0755 36.4951 30.8155 36.3812 30.5586 36.3012ZM35.631 39.7432C35.4521 39.8496 35.2539 39.9309 35.0363 39.9871C34.8186 40.0433 34.5995 40.0714 34.3789 40.0714C33.9317 40.0714 33.568 39.9442 33.2878 39.69C33.0076 39.4357 32.8675 39.072 32.8675 38.5989V36.3903H32.1967V35.4501H32.8675V34.1373H34.2358V35.4501H35.5416V36.3992H34.2358V38.3683C34.2358 38.735 34.3819 38.9183 34.674 38.9183C34.8768 38.9183 35.1004 38.8591 35.3448 38.7409L35.631 39.7432ZM39.8011 35.5169C40.1924 35.7174 40.4956 36.0004 40.7107 36.3659C40.9258 36.7315 41.0333 37.1559 41.0333 37.6394C41.0333 38.1169 40.9258 38.54 40.7107 38.9084C40.4956 39.2769 40.1924 39.5629 39.8011 39.7663C39.4098 39.9697 38.9602 40.0714 38.4524 40.0714C37.9386 40.0714 37.4861 39.9697 37.0947 39.7663C36.7034 39.5629 36.4002 39.2769 36.1851 38.9084C35.9701 38.54 35.8625 38.1169 35.8625 37.6394C35.8625 37.1559 35.9701 36.7315 36.1851 36.3659C36.4002 36.0004 36.7034 35.7174 37.0947 35.5169C37.4861 35.3165 37.9386 35.2163 38.4524 35.2163C38.9602 35.2163 39.4098 35.3165 39.8011 35.5169ZM37.5852 36.6966C37.3629 36.9386 37.2517 37.2543 37.2517 37.6438C37.2517 38.0333 37.3629 38.349 37.5852 38.591C37.8076 38.8329 38.0966 38.9539 38.4524 38.9539C38.8022 38.9539 39.0883 38.8329 39.3106 38.591C39.533 38.349 39.6441 38.0333 39.6441 37.6438C39.6441 37.2543 39.533 36.9386 39.3106 36.6966C39.0883 36.4547 38.8022 36.3337 38.4524 36.3337C38.0966 36.3337 37.8076 36.4547 37.5852 36.6966Z" fill="white"/>
</svg>
