<svg width="45" height="50" viewBox="0 0 45 50" fill="none" xmlns="http://www.w3.org/2000/svg">
<path d="M38.5462 9.725C38.5175 9.46125 38.2825 9.34375 38.1075 9.34375C37.9325 9.34375 34.095 9.05125 34.095 9.05125C34.095 9.05125 31.43 6.38625 31.1075 6.1225C30.815 5.83 30.2575 5.9175 30.0238 5.97625C29.995 5.97625 29.4375 6.1525 28.53 6.445C27.6225 3.8375 26.07 1.465 23.2875 1.465H23.0238C22.26 0.46875 21.265 0 20.445 0C14.0013 0 10.8962 8.055 9.93 12.1563C7.41125 12.9475 5.62375 13.4738 5.41875 13.5625C4.0125 14.0013 3.98375 14.0312 3.8075 15.3487C3.66125 16.345 0 44.6688 0 44.6688L28.5 50L43.9662 46.6612C43.995 46.6025 38.5762 9.98875 38.5462 9.725ZM26.9475 6.85375C26.245 7.05875 25.395 7.3225 24.5463 7.615V7.08875C24.5463 5.5075 24.3413 4.21875 23.96 3.1925C25.4238 3.36875 26.3325 4.98 26.9475 6.85375ZM22.1725 3.515C22.5538 4.51125 22.8175 5.9175 22.8175 7.85V8.1425C21.2362 8.64 19.5663 9.13875 17.8375 9.695C18.8038 6.005 20.65 4.18875 22.1725 3.515ZM20.2975 1.69875C20.59 1.69875 20.8838 1.81625 21.1175 1.99125C19.0375 2.9575 16.8413 5.38875 15.9325 10.31C14.5563 10.7488 13.2375 11.13 11.9788 11.54C13.0338 7.79125 15.67 1.69875 20.2975 1.69875Z" fill="#7CB342"/>
<path d="M38.1075 9.28495C37.9312 9.28495 34.095 8.99245 34.095 8.99245C34.095 8.99245 31.43 6.32745 31.1075 6.0637C30.9887 5.9462 30.8425 5.88745 30.7262 5.88745L28.5875 50L44.0537 46.6612C44.0537 46.6612 38.635 9.9887 38.605 9.72495C38.4875 9.4612 38.2825 9.3437 38.1075 9.28495Z" fill="#558B2F"/>
<path d="M23.0163 18.2414L21.1725 23.8026C21.1725 23.8026 19.5013 22.9089 17.5138 22.9089C14.5463 22.9089 14.4025 24.7814 14.4025 25.2426C14.4025 27.7776 21.0288 28.7576 21.0288 34.7214C21.0288 39.4176 18.0613 42.4426 14.0563 42.4426C9.21627 42.4426 6.79626 39.4464 6.79626 39.4464L8.09251 35.1826C8.09251 35.1826 10.6275 37.3726 12.76 37.3726C14.1713 37.3726 14.7475 36.2776 14.7475 35.4714C14.7475 32.1576 9.33126 32.0139 9.33126 26.5401C9.33126 21.9589 12.6163 17.5226 19.2713 17.5226C21.7475 17.4926 23.0163 18.2414 23.0163 18.2414Z" fill="white"/>
</svg>
