<svg width="83" height="50" viewBox="0 0 83 50" fill="none" xmlns="http://www.w3.org/2000/svg">
<path d="M75 0H7.14286C3.19821 0 0 3.19821 0 7.14286V35.7143C0 39.6589 3.19821 42.8571 7.14286 42.8571H41.0714L55.3571 50L51.7857 42.8571H75C78.9446 42.8571 82.1429 39.6589 82.1429 35.7143V7.14286C82.1429 3.19821 78.9446 0 75 0Z" fill="#7F54B3"/>
<path d="M70.4341 14.2858C70.5073 14.2858 70.6698 14.2947 70.9287 14.3537C71.5394 14.4912 71.9269 14.7072 72.393 15.5787C72.9466 16.5769 73.2144 17.8697 73.2144 19.534C73.2144 22.0304 72.6483 24.2465 71.4769 26.3233C70.2162 28.5715 69.2948 28.5715 68.8519 28.5715C68.7787 28.5715 68.6162 28.5626 68.3573 28.5037C67.7466 28.3662 67.3591 28.1501 66.9126 27.3144C66.3537 26.2894 66.0716 24.934 66.0716 23.2912C66.0716 20.7929 66.6323 18.5947 67.7912 16.5679C69.0912 14.2858 70.0323 14.2858 70.4341 14.2858ZM70.4341 8.92865C67.4519 8.92865 65.0305 10.5912 63.1358 13.9162C61.5216 16.7412 60.7144 19.8662 60.7144 23.2912C60.7144 25.8519 61.2108 28.0447 62.2055 29.8733C63.3233 31.9679 64.9698 33.2304 67.1751 33.7304C67.7644 33.8626 68.3233 33.9287 68.8519 33.9287C71.8644 33.9287 74.2858 32.2662 76.1501 28.9412C77.7644 26.0822 78.5716 22.9572 78.5716 19.534C78.5716 16.9412 78.0751 14.7804 77.0805 12.984C75.9626 10.8894 74.3162 9.62687 72.1108 9.12687C71.5216 8.99472 70.9626 8.92865 70.4341 8.92865ZM49.0055 14.2858C49.0787 14.2858 49.2412 14.2947 49.4841 14.3501C50.0787 14.4858 50.5037 14.7197 50.9644 15.5804C51.518 16.5769 51.7858 17.8697 51.7858 19.534C51.7858 22.0304 51.2198 24.2465 50.0483 26.3233C48.7876 28.5715 47.8662 28.5715 47.4233 28.5715C47.3501 28.5715 47.1876 28.5626 46.9287 28.5037C46.318 28.3662 45.9305 28.1501 45.4841 27.3144C44.9251 26.2894 44.643 24.934 44.643 23.2912C44.643 20.7929 45.2037 18.5947 46.3626 16.5679C47.6626 14.2858 48.6037 14.2858 49.0055 14.2858ZM49.0055 8.92865C46.0233 8.92865 43.6019 10.5912 41.7073 13.9162C40.093 16.7412 39.2858 19.8662 39.2858 23.2912C39.2858 25.8519 39.7823 28.0447 40.7769 29.8733C41.8948 31.9679 43.5412 33.2304 45.7466 33.7304C46.3358 33.8626 46.8948 33.9287 47.4233 33.9287C50.4358 33.9287 52.8573 32.2662 54.7216 28.9412C56.3358 26.0822 57.143 22.9572 57.143 19.534C57.143 16.9412 56.6466 14.7804 55.6519 12.984C54.5341 10.8894 52.8573 9.62687 50.6823 9.12687C50.093 8.99472 49.5341 8.92865 49.0055 8.92865ZM31.2501 37.5001C30.4983 37.5001 29.7644 37.1822 29.2448 36.5983C25.3233 32.1715 22.9144 26.3572 21.4948 21.7001C19.4519 26.0215 16.6948 31.5483 13.9037 36.1983C13.3519 37.1179 12.3073 37.6126 11.2412 37.4751C10.1769 37.3269 9.3037 36.559 9.02334 35.5233C5.07334 21.0108 3.6537 10.6126 3.59656 10.1769C3.40013 8.71258 4.4287 7.36437 5.89299 7.16615C7.37691 6.97329 8.70727 7.99651 8.90548 9.46258C8.91798 9.55008 9.92513 16.9215 12.5358 27.6751C16.4966 20.1608 19.818 12.434 19.8608 12.3358C20.3376 11.2287 21.5019 10.5697 22.6823 10.7376C23.8751 10.8983 24.8144 11.8358 24.9769 13.0287C24.9894 13.1215 25.9448 19.859 28.9858 26.334C30.2698 13.5376 34.1162 6.97865 34.3108 6.65365C35.0733 5.38401 36.7216 4.9733 37.9858 5.73401C39.2555 6.49472 39.6662 8.14115 38.9055 9.40901C38.8608 9.48758 33.9287 18.0626 33.9287 34.8215C33.9287 35.934 33.2394 36.9322 32.2001 37.3251C31.8894 37.4429 31.5698 37.5001 31.2501 37.5001Z" fill="white"/>
</svg>
