<svg width="50" height="50" viewBox="0 0 50 50" fill="none" xmlns="http://www.w3.org/2000/svg">
<path d="M25 0C11.25 0 0 11.25 0 25C0 38.75 11.25 50 25 50C38.75 50 50 38.75 50 25C50 11.25 38.75 0 25 0ZM11.0714 38.9286C7.32143 35.1786 5.35714 30.1786 5.35714 25.3571L24.8214 44.6429C19.8214 44.4643 14.8214 42.6786 11.0714 38.9286ZM29.2857 44.1071L5.89286 20.7143C7.85714 11.9643 15.7143 5.35714 25 5.35714C31.6071 5.35714 37.3214 8.57143 40.8929 13.3929L38.2143 15.7143C35.1786 11.6071 30.3571 8.92857 25 8.92857C18.0357 8.92857 12.1429 13.3929 9.82143 19.6429L30.3571 40.1786C35.5357 38.3929 39.4643 33.9286 40.7143 28.5714H32.1429V25H44.6429C44.6429 34.2857 38.0357 42.1429 29.2857 44.1071Z" fill="#744C9F"/>
</svg>
