<svg width="63" height="50" viewBox="0 0 63 50" fill="none" xmlns="http://www.w3.org/2000/svg">
<path d="M51.3471 50C55.9001 50 57.571 48.0368 57.571 43.2331V33.8764C57.571 29.4069 59.7431 26.8587 61.8316 25.6475C62.4583 25.2715 62.4583 24.3944 61.8316 23.9766C59.6596 22.5981 57.571 19.716 57.571 15.873V6.68337C57.571 1.50375 56.1507 0 51.5977 0H10.7039C6.15075 0 4.73062 1.50375 4.73062 6.68337V15.873C4.73062 19.716 2.642 22.5981 0.469875 23.9766C-0.156625 24.3525 -0.156625 25.2715 0.469875 25.6475C2.5585 26.817 4.73062 29.3651 4.73062 33.8764V43.2331C4.73062 48.0368 6.40137 50 10.9545 50H51.3471ZM31.0464 41.4369C26.1591 41.4369 22.6086 39.975 19.3087 37.0928C18.7656 36.5915 18.5568 35.9649 18.5568 35.3384C18.5568 34.8371 18.6821 34.2941 19.058 33.8764L20.0606 32.5815C20.5619 31.9549 21.1049 31.6625 21.7314 31.6625C22.4415 31.6625 23.1099 31.9549 23.82 32.4144C26.0756 33.8764 28.5819 34.7118 31.5894 34.7118C33.8867 34.7118 35.7248 33.751 35.7248 31.7877C35.7248 26.6917 18.7656 29.4904 18.7656 18.0451C18.7656 11.9047 23.7783 8.4795 30.2945 8.4795C34.8893 8.4795 38.2727 9.81625 40.779 11.4035C41.4056 11.8212 41.8233 12.6566 41.8233 13.4921C41.8233 13.9934 41.698 14.4528 41.4056 14.8705L40.6538 15.9984C40.1108 16.7502 39.4841 17.1261 38.6905 17.1261C38.1475 17.1261 37.5626 16.9172 36.9361 16.6249C35.0564 15.6641 33.0931 15.1629 30.7123 15.1629C28.2478 15.1629 26.7857 16.4996 26.7857 17.878C26.7857 23.0994 43.7447 20.259 43.7447 31.3701C43.7447 37.594 38.7322 41.4369 31.0464 41.4369Z" fill="url(#paint0_linear_408_167)"/>
<defs>
<linearGradient id="paint0_linear_408_167" x1="0" y1="32.5052" x2="63.656" y2="32.5052" gradientUnits="userSpaceOnUse">
<stop stop-color="#DC2DB1"/>
<stop offset="1" stop-color="#FB197A"/>
</linearGradient>
</defs>
</svg>
