<svg width="50" height="50" viewBox="0 0 50 50" fill="none" xmlns="http://www.w3.org/2000/svg">
<path fill-rule="evenodd" clip-rule="evenodd" d="M33.2259 34.0016V17.7848C33.2258 17.5075 33.1156 17.2416 32.9195 17.0455C32.7234 16.8494 32.4574 16.7393 32.1801 16.7393H15.9824V2.02874e-08H48.9009C49.0382 -2.70327e-05 49.1742 0.0270023 49.3011 0.0795443C49.428 0.132086 49.5433 0.209112 49.6405 0.306222C49.7376 0.403332 49.8147 0.518624 49.8672 0.645514C49.9198 0.772405 49.9468 0.908407 49.9468 1.04575V34.0016H33.2259Z" fill="#8E75FF"/>
<path opacity="0.405" fill-rule="evenodd" clip-rule="evenodd" d="M15.9824 0V16.7393H0.522839C0.419449 16.7393 0.318386 16.7086 0.232421 16.6511C0.146456 16.5937 0.0794462 16.5121 0.0398576 16.4166C0.000268974 16.321 -0.0101215 16.2159 0.00999886 16.1145C0.0301193 16.0131 0.0798477 15.9199 0.152901 15.8468L15.9824 0ZM33.2259 49.4774V34.0016H49.9469L34.1186 49.8469C34.0455 49.92 33.9523 49.9698 33.8509 49.99C33.7495 50.0101 33.6444 49.9998 33.5489 49.9602C33.4533 49.9207 33.3717 49.8537 33.3142 49.7678C33.2567 49.6818 33.226 49.5808 33.2259 49.4774V49.4774ZM15.9824 16.7393H32.7029C32.8416 16.7393 32.9746 16.7944 33.0727 16.8924C33.1707 16.9904 33.2259 17.1234 33.2259 17.2621V34.0016H17.0281C16.8908 34.0016 16.7548 33.9745 16.6279 33.922C16.5011 33.8694 16.3858 33.7924 16.2887 33.6953C16.1916 33.5982 16.1145 33.4829 16.062 33.356C16.0094 33.2291 15.9824 33.0931 15.9824 32.9558V16.7393Z" fill="#8E75FF"/>
</svg>
