<svg width="50" height="50" viewBox="0 0 50 50" fill="none" xmlns="http://www.w3.org/2000/svg">
<path d="M25 0C11.2146 0 0 11.2146 0 25C0 38.7854 11.2146 50 25 50C38.7854 50 50 38.7854 50 25C50 11.2146 38.7854 0 25 0ZM25 1.17292C38.1521 1.17292 48.8292 11.85 48.8292 25C48.8292 38.1521 38.1521 48.8292 25 48.8292C11.8479 48.8292 1.17083 38.1521 1.17083 25C1.17292 11.8479 11.85 1.17083 25 1.17083V1.17292ZM25 3.58118C17.7875 3.56267 11.0532 7.18683 7.09583 13.2167C7.6 13.2333 8.05625 13.2167 8.46458 13.2167C10.7104 13.2167 14.1937 12.9562 14.1937 12.9562C15.3479 12.8917 15.4792 14.575 14.3229 14.7146C14.3229 14.7146 13.1437 14.9083 11.8479 14.9729L19.6604 38.1521L24.3479 24.0896L21.0292 14.9729C19.8729 14.9104 18.75 14.7146 18.75 14.7146C17.5937 14.6479 17.725 12.8896 18.8812 12.9562C18.8812 12.9562 22.4375 13.2167 24.5437 13.2167C26.7896 13.2167 30.2729 12.9562 30.2729 12.9562C31.4292 12.8917 31.5583 14.575 30.4042 14.7146C30.4042 14.7146 29.2167 14.9083 27.9292 14.9729L35.6771 38.0208L37.825 30.8583C38.9083 28.0771 39.4542 25.7333 39.4542 23.8937C39.4542 21.2396 38.5167 19.4562 37.6958 18.0333C36.6125 16.2687 35.6125 14.7208 35.6125 12.9562C35.6125 10.9854 37.0854 9.17917 39.1917 9.17917H39.4521C35.5107 5.56147 30.3499 3.56323 25 3.58333V3.58118ZM43.8146 14.7125C43.9125 15.3979 43.9458 16.1375 43.9458 16.9271C43.9458 19.1 43.5375 21.55 42.3167 24.6104L35.8062 43.5542C42.3992 39.7041 46.4435 32.6348 46.4209 25C46.4209 21.2708 45.4937 17.7646 43.8167 14.7125H43.8146ZM5.40417 16.275C4.18896 19.0225 3.56776 21.9958 3.58125 25C3.58125 33.4875 8.47083 40.7958 15.625 44.2708L5.40417 16.275ZM25.3896 26.8875L18.9458 45.5729C20.8667 46.1354 22.8917 46.4187 25 46.4187C27.5 46.4187 29.8667 46.0292 32.0958 45.2479C32.0396 45.1583 32.0062 45.0271 31.9667 44.9208L25.3896 26.8875Z" fill="#21759B"/>
</svg>
