<svg width="50" height="50" viewBox="0 0 50 50" fill="none" xmlns="http://www.w3.org/2000/svg">
<path d="M50 43.0556C50 46.8917 46.8917 50 43.0556 50H6.94444C3.10972 50 0 46.8917 0 43.0556V6.94444C0 3.10833 3.10972 0 6.94444 0H43.0556C46.8917 0 50 3.10833 50 6.94444V43.0556Z" fill="#673AB7"/>
<path d="M37.5417 27.2221C36.6389 25.9721 35.3333 25.111 33.6528 24.6527C33.6528 24.6527 35.0694 24.1388 36.3472 22.2221C37.1111 20.9999 37.5 19.5277 37.5 17.8055C37.5 14.8194 36.4167 12.5277 34.25 10.9583C32.0833 9.38881 29.6389 8.33325 25.4861 8.33325H12.5V41.6666H26.9861C30.9167 41.6388 33.875 40.7916 35.8889 39.1666C37.8889 37.5138 38.8889 35.0694 38.8889 31.8055C38.8889 29.9999 38.4444 28.4721 37.5417 27.2221ZM20.8333 13.8888C20.8333 13.8888 26.625 13.8888 26.7361 13.8888C28.8472 13.8888 30.5556 15.5971 30.5556 17.7083C30.5556 19.8194 28.8472 21.5277 26.7361 21.5277C26.625 21.5277 20.8333 21.5277 20.8333 21.5277V13.8888ZM27.7778 36.111H20.8333V27.7777H27.7778C30.0833 27.7777 31.9444 29.6388 31.9444 31.9444C31.9444 34.2499 30.0833 36.111 27.7778 36.111Z" fill="white"/>
</svg>
