<svg width="45" height="50" viewBox="0 0 45 50" fill="none" xmlns="http://www.w3.org/2000/svg">
<path d="M44.7368 0H0L3.94737 44.7368L22.3684 50L40.7895 44.7368L44.7368 0Z" fill="#E65100"/>
<path d="M22.3685 3.94739V45.9211L37.1054 41.7105L40.3948 3.94739H22.3685Z" fill="#FF6D00"/>
<path d="M22.3685 26.3157V21.0526H33.6843L32.7633 36.1841L22.3685 39.6052V34.0789L27.7633 32.2368L28.158 26.3157H22.3685V26.3157ZM34.0791 15.7894L34.4738 10.5262H22.3685V15.7894H34.0791Z" fill="white"/>
<path d="M22.3686 34.0789V39.6052L11.9738 36.1841L11.4475 28.9473H16.7107L16.9738 32.2368L22.3686 34.0789ZM15.9212 15.7894H22.3686V10.5262H10.3949L11.316 26.3157H22.3686V21.0526H16.316L15.9212 15.7894Z" fill="#EEEEEE"/>
</svg>
