<svg width="56" height="50" viewBox="0 0 56 50" fill="none" xmlns="http://www.w3.org/2000/svg">
<path d="M27.9473 37.1199C12.2725 37.1199 0 31.7734 0 24.9689C0 18.1643 12.2725 12.8179 27.9473 12.8179C43.6221 12.8179 55.8946 18.1643 55.8946 24.9689C55.8946 31.7734 43.6221 37.1199 27.9473 37.1199ZM27.9473 15.2481C12.637 15.2481 2.4302 20.23 2.4302 24.9689C2.4302 29.7078 12.637 34.6897 27.9473 34.6897C43.2575 34.6897 53.4644 29.7078 53.4644 24.9689C53.4644 20.23 43.2575 15.2481 27.9473 15.2481Z" fill="#80DEEA"/>
<path d="M17.1328 49.9999C15.9177 49.9999 14.9456 49.7569 13.9735 49.1493C8.01951 45.747 9.59914 32.5025 17.3758 18.8933C21.0211 12.5748 25.5169 7.22838 29.8913 3.82611C34.6302 0.180809 38.883 -0.912781 41.7993 0.788358C44.837 2.4895 45.9306 6.74234 45.2016 12.6963C44.4725 18.2858 42.0423 24.8473 38.397 31.1658C34.7517 37.4844 30.2558 42.8308 25.8815 46.2331C22.7222 48.6633 19.6845 49.9999 17.1328 49.9999ZM38.7615 2.36799C36.8174 2.36799 34.2657 3.46158 31.4709 5.64876C27.3396 8.92952 23.0867 14.0329 19.563 20.1084C11.9078 33.353 11.1788 44.775 15.1886 47.0836C17.2543 48.2987 20.6565 47.2052 24.4234 44.2889C28.5547 41.0081 32.8075 35.9047 36.3313 29.8292C39.8551 23.7537 42.1638 17.5567 42.8929 12.3318C43.5004 7.47141 42.7714 4.06913 40.7057 2.85403C40.0981 2.61101 39.4906 2.36799 38.7615 2.36799Z" fill="#80DEEA"/>
<path d="M38.8831 50C32.8076 50 24.0589 42.5879 17.4974 31.0445C9.59923 17.4353 8.0196 4.19075 13.9736 0.788476C19.9276 -2.6138 30.6205 5.28434 38.5186 18.8935C42.1639 25.212 44.5941 31.7735 45.3232 37.363C46.1737 43.317 44.9586 47.4483 41.9209 49.2709C40.9488 49.757 39.9767 50 38.8831 50ZM15.1887 2.85415C11.1789 5.16283 11.9079 16.5848 19.563 29.8294C27.2182 43.0739 36.6959 49.3925 40.7058 47.0838C42.7714 45.8687 43.5005 42.4664 42.893 37.606C42.1639 32.3811 39.8552 26.1841 36.3314 20.1086C28.6763 6.86397 19.1985 0.545457 15.1887 2.85415Z" fill="#80DEEA"/>
<path d="M27.9473 29.8293C30.6316 29.8293 32.8077 27.6532 32.8077 24.9689C32.8077 22.2846 30.6316 20.1085 27.9473 20.1085C25.263 20.1085 23.0869 22.2846 23.0869 24.9689C23.0869 27.6532 25.263 29.8293 27.9473 29.8293Z" fill="#80DEEA"/>
</svg>
