<svg width="84" height="50" viewBox="0 0 84 50" fill="none" xmlns="http://www.w3.org/2000/svg">
<path d="M41.6768 0C30.563 0 23.6169 5.55517 20.8384 16.6655C25.0061 11.1103 29.8684 9.02824 35.4253 10.4157C38.5962 11.2076 40.8624 13.5085 43.3717 16.0543C47.456 20.1994 52.1846 24.9991 62.5152 24.9991C73.629 24.9991 80.5751 19.444 83.3536 8.33189C79.1859 13.8871 74.3236 15.9709 68.7667 14.5834C65.5975 13.7915 63.3314 11.4906 60.8221 8.94488C56.736 4.79804 52.0057 0 41.6768 0ZM20.8384 24.9991C9.72459 24.9991 2.77845 30.5543 0 41.6664C4.16768 36.1112 9.02997 34.0274 14.5869 35.4166C17.7561 36.2102 20.0222 38.5094 22.5315 41.0534C26.6176 45.2002 31.3479 50 41.6768 50C52.7906 50 59.7367 44.4448 62.5152 33.3328C58.3475 38.8879 53.4852 40.9718 47.9283 39.5825C44.7574 38.7907 42.4912 36.4898 39.9819 33.9458C35.8976 29.7989 31.169 24.9991 20.8384 24.9991Z" fill="#00ACC1"/>
</svg>
