<svg width="50" height="50" viewBox="0 0 50 50" fill="none" xmlns="http://www.w3.org/2000/svg">
<path d="M45.1172 0H4.88281C2.18611 0 0 2.18611 0 4.88281V45.1172C0 47.8139 2.18611 50 4.88281 50H45.1172C47.8139 50 50 47.8139 50 45.1172V4.88281C50 2.18611 47.8139 0 45.1172 0Z" fill="#3178C6"/>
<path fill-rule="evenodd" clip-rule="evenodd" d="M30.957 39.7461V44.6289C31.748 45.0391 32.7148 45.3418 33.7891 45.5469C34.8633 45.752 36.0352 45.8496 37.207 45.8496C38.3789 45.8496 39.4531 45.7422 40.5273 45.5176C41.6016 45.293 42.4805 44.9219 43.2617 44.4434C44.0527 43.9258 44.7266 43.2715 45.1172 42.3926C45.5078 41.5137 45.8105 40.5371 45.8105 39.2676C45.8105 38.3789 45.6738 37.6074 45.4102 36.9238C45.1465 36.2402 44.7656 35.6543 44.2383 35.166C43.7402 34.6484 43.1641 34.1895 42.4805 33.7988C41.7969 33.4082 41.0156 32.998 40.1367 32.627C39.4922 32.3633 38.9648 32.1094 38.3789 31.8555C37.8711 31.6016 37.4316 31.3477 37.1094 31.0937C36.748 30.8301 36.4746 30.5566 36.2793 30.2734C36.084 29.9805 35.9863 29.6582 35.9863 29.2969C35.9863 28.9648 36.0732 28.6621 36.25 28.3887C36.4268 28.1152 36.6699 27.8906 36.9824 27.6953C37.2949 27.5 37.6855 27.3535 38.1543 27.2461C38.6133 27.1387 39.1211 27.0898 39.7168 27.0898C40.127 27.0898 40.5566 27.1201 40.9863 27.1816C41.4355 27.2432 41.8945 27.3379 42.3535 27.4648C42.8125 27.5918 43.2617 27.748 43.7207 27.9434C44.1504 28.1387 44.5508 28.3633 44.8926 28.6172V24.0273C44.1504 23.7441 43.3301 23.5293 42.4512 23.3926C41.5723 23.2559 40.5957 23.1875 39.4238 23.1875C38.252 23.1875 37.1777 23.3145 36.1035 23.5586C35.0293 23.8027 34.1504 24.1934 33.3691 24.7305C32.5781 25.2578 32.002 25.9023 31.5137 26.7812C31.0547 27.6016 30.8301 28.5391 30.8301 29.7109C30.8301 31.1758 31.25 32.4453 32.0996 33.4219C32.9395 34.4961 34.248 35.2773 35.9082 36.0586C36.582 36.332 37.1777 36.6055 37.7637 36.8691C38.3496 37.1328 38.8379 37.4062 39.2285 37.6895C39.6484 37.9727 39.9805 38.2852 40.2051 38.6172C40.4492 38.9492 40.5762 39.3398 40.5762 39.7891C40.5762 40.1016 40.5 40.3945 40.3516 40.668C40.2031 40.9414 39.9707 41.1758 39.6582 41.3711C39.3457 41.5664 38.9648 41.7227 38.4863 41.8398C38.0273 41.9473 37.5098 42.0059 36.8262 42.0059C35.752 42.0059 34.6777 41.8203 33.7012 41.4492C32.627 41.0781 31.6504 40.5215 30.7715 39.7891L30.957 39.7461ZM22.7539 27.7344H29.0039V23.7305H11.5234V27.7344H17.7734V45.6055H22.7539V27.7344Z" fill="white"/>
</svg>
